<svg width="24" height="24" viewBox="0 0 24 24" fill="none" xmlns="http://www.w3.org/2000/svg">
<g clip-path="url(#clip0_128_1769)">
<path d="M23.6484 21.3555H22.9584V6.83862C22.9584 6.64442 22.8011 6.48706 22.6069 6.48706H19.5764C19.3822 6.48706 19.2248 6.64442 19.2248 6.83862V9.7369C19.2248 9.93111 19.3822 10.0885 19.5764 10.0885C19.7706 10.0885 19.928 9.93111 19.928 9.7369V7.19019H22.2553V21.3553H19.928V11.3775C19.928 11.1833 19.7706 11.026 19.5764 11.026C19.3822 11.026 19.2248 11.1833 19.2248 11.3775V21.3555H16.8973V12.5209C16.8973 12.3267 16.74 12.1693 16.5457 12.1693H13.5153C13.3211 12.1693 13.1637 12.3267 13.1637 12.5209V21.3555H10.8361V15.5864C10.8361 15.3922 10.6787 15.2349 10.4845 15.2349C10.2904 15.2349 10.133 15.3922 10.133 15.5864V21.3553H7.80562V9.55784H10.133V13.9458C10.133 14.14 10.2904 14.2973 10.4845 14.2973C10.6787 14.2973 10.8361 14.14 10.8361 13.9458V9.20628C10.8361 9.01208 10.6787 8.85472 10.4845 8.85472H7.45406C7.25991 8.85472 7.1025 9.01208 7.1025 9.20628V21.3555H4.77516V19.2657C4.77516 19.0714 4.61775 18.9141 4.42359 18.9141C4.22944 18.9141 4.07203 19.0714 4.07203 19.2657V21.3553H1.74469V15.7135H4.07203V17.625C4.07203 17.8192 4.22944 17.9766 4.42359 17.9766C4.61775 17.9766 4.77516 17.8192 4.77516 17.625V15.3619C4.77516 15.1677 4.61775 15.0103 4.42359 15.0103H1.39312C1.19897 15.0103 1.04156 15.1677 1.04156 15.3619V21.3555H0.351562C0.157406 21.3555 0 21.5128 0 21.707V23.2223C0 23.4165 0.157406 23.5738 0.351562 23.5738H23.6484C23.8426 23.5738 24 23.4165 24 23.2223V21.707C24 21.5128 23.8426 21.3555 23.6484 21.3555ZM13.8668 12.8724H16.1941V21.3555H13.8668V12.8724ZM23.2969 22.8707H0.703125V22.0586H23.2969V22.8707Z" fill="#007BFF"/>
<path d="M2.90879 12.683C3.93812 12.683 4.77559 11.8456 4.77559 10.8162C4.77559 10.4233 4.65324 10.0585 4.44507 9.75743L7.93449 6.21311C8.23098 6.41144 8.58704 6.52736 8.96973 6.52736C9.54835 6.52736 10.0663 6.26276 10.409 5.84815L13.2535 7.40411C13.1956 7.58421 13.1639 7.77602 13.1639 7.97515C13.1639 9.00452 14.0013 9.84194 15.0307 9.84194C16.06 9.84194 16.8975 9.00452 16.8975 7.97515C16.8975 7.60882 16.791 7.26705 16.6079 6.97844L19.9954 3.80276C20.3035 4.02705 20.6822 4.1598 21.0916 4.1598C22.121 4.1598 22.9584 3.32238 22.9584 2.29301C22.9584 1.26363 22.1211 0.426208 21.0917 0.426208C20.0623 0.426208 19.2249 1.26363 19.2249 2.29301C19.2249 2.65943 19.3314 3.00124 19.5145 3.2899L16.127 6.46549C15.819 6.24115 15.4402 6.10835 15.0307 6.10835C14.4521 6.10835 13.9342 6.37296 13.5915 6.78752L10.7469 5.2316C10.8048 5.05151 10.8365 4.85974 10.8365 4.66061C10.8365 3.63124 9.99905 2.79382 8.96973 2.79382C7.9404 2.79382 7.10293 3.63124 7.10293 4.66061C7.10293 5.05371 7.22532 5.41854 7.43363 5.71971L3.9443 9.26393C3.64777 9.06546 3.29162 8.94949 2.90879 8.94949C1.87946 8.94949 1.04199 9.78691 1.04199 10.8163C1.04199 11.8457 1.87941 12.683 2.90879 12.683ZM21.0917 1.12933C21.7333 1.12933 22.2554 1.65138 22.2554 2.29301C22.2554 2.93463 21.7333 3.45668 21.0917 3.45668C20.4501 3.45668 19.928 2.93463 19.928 2.29301C19.928 1.65138 20.4501 1.12933 21.0917 1.12933ZM15.0307 6.81147C15.6723 6.81147 16.1944 7.33352 16.1944 7.97515C16.1944 8.61677 15.6723 9.13882 15.0307 9.13882C14.3891 9.13882 13.867 8.61677 13.867 7.97515C13.867 7.33352 14.3891 6.81147 15.0307 6.81147ZM8.96977 3.4969C9.6114 3.4969 10.1334 4.01894 10.1334 4.66057C10.1334 5.30219 9.6114 5.82424 8.96977 5.82424C8.32815 5.82424 7.8061 5.30219 7.8061 4.66057C7.8061 4.01894 8.3281 3.4969 8.96977 3.4969ZM2.90879 9.65257C3.55041 9.65257 4.07246 10.1746 4.07246 10.8162C4.07246 11.4579 3.55041 11.9799 2.90879 11.9799C2.26716 11.9799 1.74512 11.4579 1.74512 10.8162C1.74512 10.1746 2.26712 9.65257 2.90879 9.65257Z" fill="#007BFF"/>
</g>
<defs>
<clipPath id="clip0_128_1769">
<rect width="24" height="24" fill="white"/>
</clipPath>
</defs>
</svg>
