<svg width="24" height="24" viewBox="0 0 24 24" fill="none" xmlns="http://www.w3.org/2000/svg">
<path d="M8.48552 11.0419H2.55738C1.58845 11.0419 0.799927 10.2534 0.799927 9.28444V3.35743C0.799927 2.3885 1.58845 1.59998 2.55738 1.59998H8.48552C9.45445 1.59998 10.243 2.3885 10.243 3.35743V9.28557C10.243 10.2545 9.45445 11.0419 8.48552 11.0419ZM2.55738 2.42368C2.04228 2.42368 1.62363 2.84233 1.62363 3.35743V9.28557C1.62363 9.80067 2.04228 10.2193 2.55738 10.2193H8.48552C9.00062 10.2193 9.41928 9.80067 9.41928 9.28557V3.35743C9.41928 2.84233 9.00062 2.42368 8.48552 2.42368H2.55738Z" fill="#747474"/>
<path d="M20.6425 11.0419H14.7144C13.7454 11.0419 12.9569 10.2534 12.9569 9.28444V3.35743C12.9569 2.3885 13.7454 1.59998 14.7144 1.59998H20.6425C21.6114 1.59998 22.4 2.3885 22.4 3.35743V9.28557C22.3988 10.2545 21.6114 11.0419 20.6425 11.0419ZM14.7144 2.42368C14.1993 2.42368 13.7806 2.84233 13.7806 3.35743V9.28557C13.7806 9.80067 14.1993 10.2193 14.7144 10.2193H20.6425C21.1576 10.2193 21.5763 9.80067 21.5763 9.28557V3.35743C21.5763 2.84233 21.1576 2.42368 20.6425 2.42368H14.7144Z" fill="#747474"/>
<path d="M8.48552 23.0026H2.55738C1.58845 23.0026 0.799927 22.2141 0.799927 21.2452V15.317C0.799927 14.3481 1.58845 13.5596 2.55738 13.5596H8.48552C9.45445 13.5596 10.243 14.3481 10.243 15.317V21.2452C10.243 22.2141 9.45445 23.0026 8.48552 23.0026ZM2.55738 14.3844C2.04228 14.3844 1.62363 14.8031 1.62363 15.3182V21.2463C1.62363 21.7614 2.04228 22.1801 2.55738 22.1801H8.48552C9.00062 22.1801 9.41928 21.7614 9.41928 21.2463V15.3182C9.41928 14.8031 9.00062 14.3844 8.48552 14.3844H2.55738Z" fill="#747474"/>
<path d="M20.6425 23.0026H14.7144C13.7454 23.0026 12.9569 22.2141 12.9569 21.2452V15.317C12.9569 14.3481 13.7454 13.5596 14.7144 13.5596H20.6425C21.6114 13.5596 22.4 14.3481 22.4 15.317V21.2452C22.3988 22.2141 21.6114 23.0026 20.6425 23.0026ZM14.7144 14.3844C14.1993 14.3844 13.7806 14.8031 13.7806 15.3182V21.2463C13.7806 21.7614 14.1993 22.1801 14.7144 22.1801H20.6425C21.1576 22.1801 21.5763 21.7614 21.5763 21.2463V15.3182C21.5763 14.8031 21.1576 14.3844 20.6425 14.3844H14.7144Z" fill="#747474"/>
<path d="M17.6789 14.3844C17.452 14.3844 17.2671 14.1994 17.2671 13.9725V10.6312C17.2671 10.4043 17.452 10.2194 17.6789 10.2194C17.9059 10.2194 18.0908 10.4043 18.0908 10.6312V13.9725C18.0908 14.1994 17.907 14.3844 17.6789 14.3844Z" fill="#747474"/>
<path d="M5.52086 14.3844C5.29394 14.3844 5.10901 14.1994 5.10901 13.9725V10.6312C5.10901 10.4043 5.29394 10.2194 5.52086 10.2194C5.74777 10.2194 5.93271 10.4043 5.93271 10.6312V13.9725C5.93271 14.1994 5.74777 14.3844 5.52086 14.3844Z" fill="#747474"/>
<path d="M13.3688 18.6921H9.83116C9.60425 18.6921 9.41931 18.5072 9.41931 18.2803C9.41931 18.0533 9.60425 17.8684 9.83116 17.8684H13.3676C13.5945 17.8684 13.7795 18.0533 13.7795 18.2803C13.7806 18.5083 13.5957 18.6921 13.3688 18.6921Z" fill="#747474"/>
<path d="M13.3688 6.73154H9.83116C9.60425 6.73154 9.41931 6.5466 9.41931 6.31969C9.41931 6.09277 9.60425 5.90784 9.83116 5.90784H13.3676C13.5945 5.90784 13.7795 6.09277 13.7795 6.31969C13.7806 6.54774 13.5957 6.73154 13.3688 6.73154Z" fill="#747474"/>
</svg>
