<svg width="24" height="24" viewBox="0 0 24 24" fill="none" xmlns="http://www.w3.org/2000/svg">
<g clip-path="url(#clip0_88_3)">
<path d="M21.6774 12.9794V5.38839C22.9885 5.19948 24 4.07187 24 2.70968C24 1.21587 22.7845 0 21.2903 0C19.7961 0 18.5806 1.21587 18.5806 2.70968H0V18.1935H11.6326C11.8339 21.4281 14.5223 24 17.8065 24C21.2214 24 24 21.2214 24 17.8065C24 15.8559 23.0915 14.1155 21.6774 12.9794ZM21.2903 0.774194C22.3575 0.774194 23.2258 1.64245 23.2258 2.70968C23.2258 3.7769 22.3575 4.64516 21.2903 4.64516C20.2231 4.64516 19.3548 3.7769 19.3548 2.70968C19.3548 1.64245 20.2231 0.774194 21.2903 0.774194ZM0.774194 3.48387H18.6948C18.7874 3.79277 18.9345 4.07729 19.1234 4.32968L16.7559 6.69716C16.6041 6.62439 16.4369 6.58065 16.2581 6.58065C16.0792 6.58065 15.912 6.62439 15.7606 6.69716L14.9806 5.91716C15.053 5.76542 15.0968 5.59819 15.0968 5.41935C15.0968 4.7791 14.5757 4.25806 13.9355 4.25806C13.2952 4.25806 12.7742 4.7791 12.7742 5.41935C12.7742 5.59819 12.8179 5.76542 12.8907 5.91677L10.9494 7.85806C10.7977 7.78568 10.6305 7.74194 10.4516 7.74194C9.81135 7.74194 9.29032 8.26297 9.29032 8.90323C9.29032 9.54348 9.81135 10.0645 10.4516 10.0645C11.0919 10.0645 11.6129 9.54348 11.6129 8.90323C11.6129 8.72439 11.5692 8.55716 11.4964 8.40581L13.4377 6.46452C13.5894 6.5369 13.7566 6.58065 13.9355 6.58065C14.1143 6.58065 14.2815 6.5369 14.4329 6.46413L15.2129 7.24413C15.1405 7.39587 15.0968 7.5631 15.0968 7.74194C15.0968 8.38219 15.6178 8.90323 16.2581 8.90323C16.8983 8.90323 17.4194 8.38219 17.4194 7.74194C17.4194 7.5631 17.3756 7.39587 17.3028 7.24452L19.6707 4.87703C20.0249 5.14258 20.4453 5.32258 20.9032 5.38877V12.4514C19.9908 11.9214 18.9352 11.6129 17.8065 11.6129C15.9561 11.6129 14.297 12.4328 13.1613 13.7237V12H10.8387V16.6452H11.7259C11.6779 16.8979 11.6489 17.1569 11.6326 17.4194H0.774194V3.48387ZM16.2581 7.35484C16.4714 7.35484 16.6452 7.52826 16.6452 7.74194C16.6452 7.95561 16.4714 8.12903 16.2581 8.12903C16.0448 8.12903 15.871 7.95561 15.871 7.74194C15.871 7.52826 16.0448 7.35484 16.2581 7.35484ZM13.5484 5.41935C13.5484 5.20568 13.7222 5.03226 13.9355 5.03226C14.1488 5.03226 14.3226 5.20568 14.3226 5.41935C14.3226 5.63303 14.1488 5.80645 13.9355 5.80645C13.7222 5.80645 13.5484 5.63303 13.5484 5.41935ZM10.8387 8.90323C10.8387 9.1169 10.6649 9.29032 10.4516 9.29032C10.2383 9.29032 10.0645 9.1169 10.0645 8.90323C10.0645 8.68955 10.2383 8.51613 10.4516 8.51613C10.6649 8.51613 10.8387 8.68955 10.8387 8.90323ZM17.8065 20.9032C16.099 20.9032 14.7097 19.5139 14.7097 17.8065C14.7097 16.099 16.099 14.7097 17.8065 14.7097C19.5139 14.7097 20.9032 16.099 20.9032 17.8065C20.9032 19.5139 19.5139 20.9032 17.8065 20.9032ZM12.3871 14.8146C12.2017 15.149 12.0484 15.5025 11.9268 15.871H11.6129V12.7742H12.3871V14.8146ZM17.4194 12.4068V13.9552C15.4661 14.1503 13.9355 15.8028 13.9355 17.8065C13.9355 18.3728 14.0609 18.9097 14.2804 19.3951L12.9375 20.1705C12.5884 19.4551 12.3871 18.6546 12.3871 17.8065C12.3871 14.9489 14.6117 12.6066 17.4194 12.4068ZM17.8065 23.2258C15.943 23.2258 14.2963 22.2801 13.3208 20.8432L14.669 20.0648C15.3728 21.0395 16.5151 21.6774 17.8065 21.6774C19.0978 21.6774 20.2401 21.0395 20.9439 20.0648L22.2921 20.8432C21.3166 22.2801 19.6699 23.2258 17.8065 23.2258ZM22.6754 20.1705L21.3325 19.3951C21.552 18.9097 21.6774 18.3728 21.6774 17.8065C21.6774 15.8028 20.1468 14.1499 18.1935 13.9552V12.4068C21.0012 12.6066 23.2258 14.9489 23.2258 17.8065C23.2258 18.6546 23.0245 19.4551 22.6754 20.1705Z" fill="#747474"/>
<path d="M17.8065 15.4839C16.5256 15.4839 15.4839 16.5256 15.4839 17.8065C15.4839 19.0874 16.5256 20.129 17.8065 20.129C19.0874 20.129 20.129 19.0874 20.129 17.8065C20.129 16.5256 19.0874 15.4839 17.8065 15.4839ZM17.8065 19.3549C16.9525 19.3549 16.2581 18.6604 16.2581 17.8065C16.2581 16.9525 16.9525 16.2581 17.8065 16.2581C18.6604 16.2581 19.3549 16.9525 19.3549 17.8065C19.3549 18.6604 18.6604 19.3549 17.8065 19.3549Z" fill="#747474"/>
<path d="M1.54834 4.25806H2.32253V5.03225H1.54834V4.25806Z" fill="#747474"/>
<path d="M3.0968 4.25806H8.51616V5.03225H3.0968V4.25806Z" fill="#747474"/>
<path d="M1.54834 5.8064H2.32253V6.58059H1.54834V5.8064Z" fill="#747474"/>
<path d="M3.0968 5.8064H8.51616V6.58059H3.0968V5.8064Z" fill="#747474"/>
<path d="M1.54834 7.35486H2.32253V8.12905H1.54834V7.35486Z" fill="#747474"/>
<path d="M3.0968 7.35486H8.51616V8.12905H3.0968V7.35486Z" fill="#747474"/>
<path d="M1.54834 8.9032H2.32253V9.67739H1.54834V8.9032Z" fill="#747474"/>
<path d="M3.0968 8.9032H8.51616V9.67739H3.0968V8.9032Z" fill="#747474"/>
<path d="M1.54834 16.6451H3.87092V12.7742H1.54834V16.6451ZM2.32253 13.5484H3.09673V15.8709H2.32253V13.5484Z" fill="#747474"/>
<path d="M4.64514 16.6451H6.96772V13.5483H4.64514V16.6451ZM5.41934 14.3225H6.19353V15.8709H5.41934V14.3225Z" fill="#747474"/>
<path d="M7.74194 16.6452H10.0645V10.4517H7.74194V16.6452ZM8.51614 11.2259H9.29033V15.871H8.51614V11.2259Z" fill="#747474"/>
</g>
<defs>
<clipPath id="clip0_88_3">
<rect width="24" height="24" fill="white"/>
</clipPath>
</defs>
</svg>
