<svg width="24" height="24" viewBox="0 0 24 24" fill="none" xmlns="http://www.w3.org/2000/svg">
<g clip-path="url(#clip0_93_54)">
<path d="M23.3486 16.8878L17.7881 15.3716C18.6635 14.0355 19.1282 12.4723 19.125 10.875C19.125 9.24331 18.6411 7.64825 17.7346 6.29155C16.8281 4.93484 15.5396 3.87742 14.0321 3.253C12.5247 2.62857 10.8659 2.4652 9.26551 2.78353C7.66517 3.10185 6.19516 3.88759 5.04137 5.04137C3.88759 6.19516 3.10185 7.66517 2.78353 9.26551C2.4652 10.8659 2.62857 12.5247 3.253 14.0321C3.87742 15.5396 4.93484 16.8281 6.29155 17.7346C7.64825 18.6411 9.24331 19.125 10.875 19.125C12.4723 19.1285 14.0357 18.6637 15.3716 17.7881L16.8878 23.3486C16.908 23.4231 16.9508 23.4895 17.0102 23.5387C17.0696 23.588 17.1427 23.6177 17.2196 23.6239L17.25 23.625C17.322 23.625 17.3924 23.6043 17.4529 23.5653C17.5134 23.5263 17.5615 23.4708 17.5913 23.4053L19.4085 19.4081L23.4056 17.5909C23.4758 17.5589 23.5345 17.5061 23.5736 17.4397C23.6127 17.3732 23.6303 17.2963 23.6241 17.2194C23.6179 17.1426 23.5882 17.0695 23.539 17.0101C23.4897 16.9508 23.423 16.908 23.3486 16.8878ZM10.875 18.375C9.39164 18.375 7.9416 17.9351 6.70823 17.111C5.47486 16.2869 4.51356 15.1156 3.94591 13.7451C3.37825 12.3747 3.22973 10.8667 3.51911 9.41183C3.8085 7.95697 4.52281 6.6206 5.5717 5.5717C6.6206 4.52281 7.95697 3.8085 9.41183 3.51911C10.8667 3.22973 12.3747 3.37825 13.7451 3.94591C15.1156 4.51356 16.2869 5.47486 17.111 6.70823C17.9351 7.9416 18.375 9.39164 18.375 10.875C18.3778 12.4097 17.9053 13.9075 17.0224 15.1628L15.0986 14.6378C15.0348 14.6203 14.9676 14.6201 14.9037 14.6371C14.8398 14.654 14.7815 14.6876 14.7347 14.7344C14.688 14.7811 14.6544 14.8394 14.6375 14.9033C14.6205 14.9672 14.6207 15.0345 14.6381 15.0983L15.1631 17.0216C13.9079 17.9049 12.4099 18.3777 10.875 18.375ZM17.3381 22.149L15.7331 16.2634L18.675 19.2064L17.3381 22.149ZM19.2064 18.675L16.2638 15.7335L22.149 17.3381L19.2064 18.675Z" fill="#747474"/>
<path d="M12.4068 0.487495C12.15 0.449995 11.8875 0.419995 11.6272 0.401245L11.574 1.15125C11.8158 1.1685 12.0596 1.19512 12.2985 1.22962L12.4068 0.487495Z" fill="#747474"/>
<path d="M13.938 0.82872C13.689 0.75372 13.4336 0.685845 13.1794 0.628845L13.0151 1.36047C13.2514 1.41372 13.4884 1.47597 13.7198 1.54797L13.938 0.82872Z" fill="#747474"/>
<path d="M15.4016 1.39837C15.1653 1.28587 14.9227 1.18012 14.6808 1.086L14.4086 1.785C14.6336 1.87237 14.8586 1.96987 15.0783 2.07487L15.4016 1.39837Z" fill="#747474"/>
<path d="M10.8454 1.125V0.375C10.5829 0.375 10.3204 0.38625 10.0613 0.406125L10.119 1.15612C10.3572 1.1355 10.602 1.125 10.8454 1.125Z" fill="#747474"/>
<path d="M16.7626 2.18024C16.5488 2.03474 16.3246 1.89449 16.0966 1.76361L15.7216 2.41424C15.9331 2.53574 16.1408 2.66549 16.3392 2.80049L16.7626 2.18024Z" fill="#747474"/>
<path d="M6.62132 2.09999L6.29357 1.42499C6.05919 1.53749 5.82632 1.66311 5.60132 1.79399L5.97857 2.44199C6.18744 2.32049 6.40344 2.20499 6.62132 2.09999Z" fill="#747474"/>
<path d="M4.22699 3.74252L3.71511 3.19464C3.52499 3.37314 3.33749 3.56027 3.16199 3.75002L3.71249 4.25964C3.87599 4.08264 4.04999 3.90864 4.22699 3.74252Z" fill="#747474"/>
<path d="M7.97476 1.56335L7.74976 0.847473C7.50001 0.925473 7.25101 1.01322 7.00989 1.10997L7.28589 1.8071C7.51126 1.71747 7.74264 1.63572 7.97476 1.56335Z" fill="#747474"/>
<path d="M9.39302 1.23753L9.28052 0.496155C9.02177 0.533655 8.76227 0.585405 8.50952 0.64353L8.6779 1.3744C8.91227 1.31965 9.15302 1.27503 9.39302 1.23753Z" fill="#747474"/>
<path d="M5.36247 2.83127L4.93834 2.21252C4.72422 2.35952 4.51234 2.51702 4.30872 2.68015L4.77784 3.26515C4.96722 3.1144 5.16409 2.96815 5.36247 2.83127Z" fill="#747474"/>
<path d="M21.375 10.875V10.8345H20.625V10.875C20.625 11.118 20.616 11.3625 20.5984 11.6032L21.3461 11.6587C21.3653 11.4 21.375 11.1375 21.375 10.875Z" fill="#747474"/>
<path d="M19.9541 14.4375L20.6524 14.7116C20.7476 14.4694 20.835 14.22 20.9119 13.9699L20.1952 13.749C20.1236 13.9796 20.0426 14.2125 19.9541 14.4375Z" fill="#747474"/>
<path d="M21.2592 12.4384L20.5178 12.3278C20.4803 12.5666 20.4368 12.8078 20.3832 13.044L21.1144 13.2098C21.1722 12.9555 21.2209 12.696 21.2592 12.4384Z" fill="#747474"/>
<path d="M17.9917 3.15485C17.7997 2.97747 17.5991 2.80572 17.3951 2.64447L16.9293 3.2321C17.1168 3.3821 17.3043 3.54147 17.4836 3.7061L17.9917 3.15485Z" fill="#747474"/>
<path d="M20.5953 10.107L21.3431 10.0493C21.3228 9.78978 21.2928 9.52765 21.2531 9.26965L20.5117 9.38215C20.55 9.62328 20.5766 9.86665 20.5953 10.107Z" fill="#747474"/>
<path d="M19.0624 4.30013C18.8981 4.09613 18.7249 3.89701 18.5483 3.70801L18 4.21988C18.1643 4.39538 18.3251 4.58063 18.4777 4.77076L19.0624 4.30013Z" fill="#747474"/>
<path d="M19.9403 7.27837L20.637 7.00125C20.5406 6.75862 20.4341 6.51712 20.3205 6.28387L19.6455 6.61237C19.7516 6.82875 19.8506 7.053 19.9403 7.27837Z" fill="#747474"/>
<path d="M20.3745 8.66852L21.105 8.49902C21.0457 8.24364 20.9764 7.98864 20.8991 7.74152L20.1832 7.96652C20.2552 8.19452 20.3194 8.43114 20.3745 8.66852Z" fill="#747474"/>
<path d="M19.3035 5.97L19.95 5.59237C19.8187 5.36737 19.677 5.14237 19.5296 4.92975L18.9131 5.355C19.05 5.55375 19.1812 5.76075 19.3035 5.97Z" fill="#747474"/>
<path d="M6.32922 20.3426C6.5636 20.4551 6.80585 20.5609 7.04997 20.6561L7.32297 19.9579C7.09797 19.8694 6.87297 19.7704 6.6551 19.6669L6.32922 20.3426Z" fill="#747474"/>
<path d="M2.67456 17.433C2.83694 17.6359 3.00944 17.8357 3.18756 18.0266L3.73619 17.5159C3.57119 17.3385 3.41106 17.1529 3.25994 16.9642L2.67456 17.433Z" fill="#747474"/>
<path d="M7.79211 20.9149C8.04186 20.9899 8.29686 21.0596 8.55074 21.117L8.71574 20.385C8.48061 20.3321 8.24361 20.2691 8.01186 20.1975L7.79211 20.9149Z" fill="#747474"/>
<path d="M3.74255 18.5809C3.9338 18.7579 4.13405 18.93 4.33805 19.0924L4.8053 18.5059C4.61593 18.3559 4.4303 18.1954 4.25255 18.0308L3.74255 18.5809Z" fill="#747474"/>
<path d="M4.96948 19.5581C5.18548 19.7051 5.40898 19.8457 5.63473 19.9759L6.00973 19.3264C5.80048 19.2052 5.59273 19.0747 5.39248 18.9382L4.96948 19.5581Z" fill="#747474"/>
<path d="M3.23816 4.81275L2.65129 4.34625C2.48891 4.55063 2.33216 4.76325 2.18591 4.9785L2.80579 5.4C2.94191 5.2005 3.08741 5.00288 3.23816 4.81275Z" fill="#747474"/>
<path d="M12.3375 20.5159L12.45 21.2576C12.7084 21.2201 12.9679 21.1699 13.221 21.1121L13.0541 20.3809C12.8186 20.4345 12.5779 20.4799 12.3375 20.5159Z" fill="#747474"/>
<path d="M10.8851 20.625V21.375C11.145 21.375 11.4101 21.3648 11.6693 21.3453L11.613 20.5976C11.3715 20.6156 11.1266 20.625 10.8851 20.625Z" fill="#747474"/>
<path d="M9.32214 21.2625C9.58014 21.3 9.84264 21.3296 10.1018 21.3484L10.1561 20.6003C9.91539 20.5826 9.67164 20.556 9.43164 20.5204L9.32214 21.2625Z" fill="#747474"/>
<path d="M13.7572 20.1919L13.9781 20.9085C14.226 20.8335 14.4753 20.745 14.7191 20.6486L14.4442 19.9511C14.2185 20.04 13.9875 20.121 13.7572 20.1919Z" fill="#747474"/>
<path d="M1.15012 10.1659L0.402 10.1126C0.384 10.3642 0.375 10.6207 0.375 10.875V10.8952L1.125 10.875C1.125 10.6384 1.13325 10.3999 1.15012 10.1659Z" fill="#747474"/>
<path d="M1.78879 7.33239L1.08979 7.05939C0.995287 7.30164 0.908662 7.55139 0.831787 7.80189L1.54916 8.02126C1.62041 7.78876 1.70104 7.55701 1.78879 7.33239Z" fill="#747474"/>
<path d="M1.3628 8.72548L0.631174 8.56085C0.574174 8.81248 0.525049 9.07498 0.487549 9.33223L1.22967 9.44173C1.26492 9.20173 1.30992 8.96248 1.3628 8.72548Z" fill="#747474"/>
<path d="M2.43745 15.7631L1.7887 16.14C1.9192 16.365 2.0602 16.5877 2.2072 16.803L2.82632 16.3792C2.68945 16.1794 2.55857 15.972 2.43745 15.7631Z" fill="#747474"/>
<path d="M2.41908 6.01801L1.76883 5.64301C1.63908 5.86801 1.51571 6.10275 1.40283 6.33788L2.07783 6.66263C2.18396 6.44476 2.29796 6.22763 2.41908 6.01801Z" fill="#747474"/>
<path d="M1.8026 14.4536L1.1051 14.7289C1.20035 14.9704 1.3061 15.2119 1.4201 15.447L2.0951 15.12C1.98935 14.9021 1.8911 14.6779 1.8026 14.4536Z" fill="#747474"/>
<path d="M1.37138 13.0627L0.640503 13.2307C0.699003 13.4846 0.767628 13.7396 0.844503 13.9886L1.56113 13.7666C1.4895 13.5375 1.425 13.2986 1.37138 13.0627Z" fill="#747474"/>
<path d="M1.15315 11.625L0.405396 11.6816C0.425271 11.9419 0.454896 12.2044 0.493896 12.4616L1.23527 12.3491C1.20002 12.1084 1.17152 11.8646 1.15315 11.625Z" fill="#747474"/>
<path d="M16.7652 10.6099L14.5152 8.35986C14.4627 8.30743 14.3959 8.27173 14.3232 8.25726C14.2504 8.2428 14.1751 8.25023 14.1065 8.2786C14.038 8.30698 13.9795 8.35503 13.9383 8.41668C13.8971 8.47834 13.8751 8.55082 13.875 8.62498V9.74998H12V7.87498H13.125C13.1992 7.87497 13.2717 7.85296 13.3333 7.81176C13.395 7.77055 13.443 7.71199 13.4714 7.64348C13.4998 7.57496 13.5072 7.49958 13.4928 7.42684C13.4783 7.35411 13.4426 7.2873 13.3902 7.23486L11.1402 4.98486C11.0698 4.91455 10.9745 4.87506 10.875 4.87506C10.7756 4.87506 10.6802 4.91455 10.6099 4.98486L8.35992 7.23486C8.30749 7.2873 8.27179 7.35411 8.25732 7.42684C8.24286 7.49958 8.25029 7.57496 8.27866 7.64348C8.30704 7.71199 8.35509 7.77055 8.41675 7.81176C8.4784 7.85296 8.55089 7.87497 8.62504 7.87498H9.75004V9.74998H7.87504V8.62498C7.87503 8.55082 7.85302 8.47834 7.81182 8.41668C7.77061 8.35503 7.71205 8.30698 7.64354 8.2786C7.57502 8.25023 7.49964 8.2428 7.4269 8.25726C7.35417 8.27173 7.28736 8.30743 7.23492 8.35986L4.98492 10.6099C4.91462 10.6802 4.87512 10.7755 4.87512 10.875C4.87512 10.9744 4.91462 11.0698 4.98492 11.1401L7.23492 13.3901C7.28736 13.4425 7.35417 13.4782 7.4269 13.4927C7.49964 13.5072 7.57502 13.4997 7.64354 13.4714C7.71205 13.443 7.77061 13.3949 7.81182 13.3333C7.85302 13.2716 7.87503 13.1991 7.87504 13.125V12H9.75004V13.875H8.62504C8.55089 13.875 8.4784 13.897 8.41675 13.9382C8.35509 13.9794 8.30704 14.038 8.27866 14.1065C8.25029 14.175 8.24286 14.2504 8.25732 14.3231C8.27179 14.3958 8.30749 14.4627 8.35992 14.5151L10.6099 16.7651C10.6802 16.8354 10.7756 16.8749 10.875 16.8749C10.9745 16.8749 11.0698 16.8354 11.1402 16.7651L13.3902 14.5151C13.4426 14.4627 13.4783 14.3958 13.4928 14.3231C13.5072 14.2504 13.4998 14.175 13.4714 14.1065C13.443 14.038 13.395 13.9794 13.3333 13.9382C13.2717 13.897 13.1992 13.875 13.125 13.875H12V12H13.875V13.125C13.8751 13.1991 13.8971 13.2716 13.9383 13.3333C13.9795 13.3949 14.038 13.443 14.1065 13.4714C14.1751 13.4997 14.2504 13.5072 14.3232 13.4927C14.3959 13.4782 14.4627 13.4425 14.5152 13.3901L16.7652 11.1401C16.8355 11.0698 16.875 10.9744 16.875 10.875C16.875 10.7755 16.8355 10.6802 16.7652 10.6099ZM14.625 12.2197V11.625C14.625 11.5255 14.5855 11.4301 14.5152 11.3598C14.4449 11.2895 14.3495 11.25 14.25 11.25H11.625C11.5256 11.25 11.4302 11.2895 11.3599 11.3598C11.2896 11.4301 11.25 11.5255 11.25 11.625V14.25C11.25 14.3494 11.2896 14.4448 11.3599 14.5151C11.4302 14.5855 11.5256 14.625 11.625 14.625H12.2198L10.875 15.9697L9.53029 14.625H10.125C10.2245 14.625 10.3199 14.5855 10.3902 14.5151C10.4605 14.4448 10.5 14.3494 10.5 14.25V11.625C10.5 11.5255 10.4605 11.4301 10.3902 11.3598C10.3199 11.2895 10.2245 11.25 10.125 11.25H7.50004C7.40059 11.25 7.3052 11.2895 7.23488 11.3598C7.16455 11.4301 7.12504 11.5255 7.12504 11.625V12.2197L5.78029 10.875L7.12504 9.53023V10.125C7.12504 10.2244 7.16455 10.3198 7.23488 10.3901C7.3052 10.4605 7.40059 10.5 7.50004 10.5H10.125C10.2245 10.5 10.3199 10.4605 10.3902 10.3901C10.4605 10.3198 10.5 10.2244 10.5 10.125V7.49998C10.5 7.40052 10.4605 7.30514 10.3902 7.23482C10.3199 7.16449 10.2245 7.12498 10.125 7.12498H9.53029L10.875 5.78023L12.2198 7.12498H11.625C11.5256 7.12498 11.4302 7.16449 11.3599 7.23482C11.2896 7.30514 11.25 7.40052 11.25 7.49998V10.125C11.25 10.2244 11.2896 10.3198 11.3599 10.3901C11.4302 10.4605 11.5256 10.5 11.625 10.5H14.25C14.3495 10.5 14.4449 10.4605 14.5152 10.3901C14.5855 10.3198 14.625 10.2244 14.625 10.125V9.53023L15.9698 10.875L14.625 12.2197Z" fill="#747474"/>
</g>
<defs>
<clipPath id="clip0_93_54">
<rect width="24" height="24" fill="white"/>
</clipPath>
</defs>
</svg>
