<svg width="24" height="24" viewBox="0 0 24 24" fill="none" xmlns="http://www.w3.org/2000/svg">
<path d="M18 10.125H6C5.793 10.125 5.625 9.957 5.625 9.75V7.5C5.625 7.293 5.793 7.125 6 7.125H18C18.207 7.125 18.375 7.293 18.375 7.5V9.75C18.375 9.957 18.207 10.125 18 10.125ZM6.375 9.375H17.625V7.875H6.375V9.375Z" fill="#007BFF"/>
<path d="M16.875 11.625H9C8.793 11.625 8.625 11.457 8.625 11.25C8.625 11.043 8.793 10.875 9 10.875H16.875C17.082 10.875 17.25 11.043 17.25 11.25C17.25 11.457 17.082 11.625 16.875 11.625Z" fill="#007BFF"/>
<path d="M16.875 13.125H9C8.793 13.125 8.625 12.957 8.625 12.75C8.625 12.543 8.793 12.375 9 12.375H16.875C17.082 12.375 17.25 12.543 17.25 12.75C17.25 12.957 17.082 13.125 16.875 13.125Z" fill="#007BFF"/>
<path d="M7.5 11.625C7.70711 11.625 7.875 11.4571 7.875 11.25C7.875 11.0429 7.70711 10.875 7.5 10.875C7.29289 10.875 7.125 11.0429 7.125 11.25C7.125 11.4571 7.29289 11.625 7.5 11.625Z" fill="#007BFF"/>
<path d="M7.5 13.125C7.70711 13.125 7.875 12.9571 7.875 12.75C7.875 12.5429 7.70711 12.375 7.5 12.375C7.29289 12.375 7.125 12.5429 7.125 12.75C7.125 12.9571 7.29289 13.125 7.5 13.125Z" fill="#007BFF"/>
<path d="M18 17.25H6C5.793 17.25 5.625 17.082 5.625 16.875V14.625C5.625 14.418 5.793 14.25 6 14.25H18C18.207 14.25 18.375 14.418 18.375 14.625V16.875C18.375 17.082 18.207 17.25 18 17.25ZM6.375 16.5H17.625V15H6.375V16.5Z" fill="#007BFF"/>
<path d="M16.875 18.75H9C8.793 18.75 8.625 18.582 8.625 18.375C8.625 18.168 8.793 18 9 18H16.875C17.082 18 17.25 18.168 17.25 18.375C17.25 18.582 17.082 18.75 16.875 18.75Z" fill="#007BFF"/>
<path d="M16.875 20.25H9C8.793 20.25 8.625 20.082 8.625 19.875C8.625 19.668 8.793 19.5 9 19.5H16.875C17.082 19.5 17.25 19.668 17.25 19.875C17.25 20.082 17.082 20.25 16.875 20.25Z" fill="#007BFF"/>
<path d="M7.5 18.75C7.70711 18.75 7.875 18.5821 7.875 18.375C7.875 18.1679 7.70711 18 7.5 18C7.29289 18 7.125 18.1679 7.125 18.375C7.125 18.5821 7.29289 18.75 7.5 18.75Z" fill="#007BFF"/>
<path d="M7.5 20.25C7.70711 20.25 7.875 20.0821 7.875 19.875C7.875 19.6679 7.70711 19.5 7.5 19.5C7.29289 19.5 7.125 19.6679 7.125 19.875C7.125 20.0821 7.29289 20.25 7.5 20.25Z" fill="#007BFF"/>
<path d="M11.625 4.5H6C5.793 4.5 5.625 4.332 5.625 4.125C5.625 3.918 5.793 3.75 6 3.75H11.625C11.832 3.75 12 3.918 12 4.125C12 4.332 11.832 4.5 11.625 4.5Z" fill="#007BFF"/>
<path d="M11.625 6H6C5.793 6 5.625 5.832 5.625 5.625C5.625 5.418 5.793 5.25 6 5.25H11.625C11.832 5.25 12 5.418 12 5.625C12 5.832 11.832 6 11.625 6Z" fill="#007BFF"/>
<path d="M20.9951 5.60138C20.9929 5.56838 20.9865 5.5365 20.976 5.505C20.9719 5.493 20.9689 5.48138 20.9632 5.46975C20.9449 5.43 20.922 5.39213 20.8898 5.35988L16.0151 0.484875C15.9829 0.452625 15.9446 0.429375 15.9049 0.411C15.894 0.406125 15.8828 0.403125 15.8711 0.399C15.8389 0.38775 15.8063 0.381375 15.7725 0.3795C15.7646 0.379125 15.7579 0.375 15.75 0.375H4.125C3.50475 0.375 3 0.87975 3 1.5V22.5C3 23.1203 3.50475 23.625 4.125 23.625H19.875C20.4953 23.625 21 23.1203 21 22.5V5.625C21 5.61675 20.9959 5.60963 20.9951 5.60138ZM19.7194 5.25H16.4996C16.293 5.25 16.1246 5.08162 16.1246 4.875V1.65525L19.7194 5.25ZM19.8746 22.875H4.125C3.91838 22.875 3.75 22.7066 3.75 22.5V1.5C3.75 1.29338 3.91838 1.125 4.125 1.125H15.375V4.875C15.375 5.49525 15.8798 6 16.5 6H20.25V22.5C20.25 22.7066 20.0813 22.875 19.8746 22.875Z" fill="#007BFF"/>
</svg>
