<svg width="20" height="20" viewBox="0 0 20 20" fill="none" xmlns="http://www.w3.org/2000/svg">
<path d="M2.85718 5.00005C2.85718 4.60556 3.17698 4.28577 3.57146 4.28577H17.1429C17.5374 4.28577 17.8572 4.60556 17.8572 5.00005C17.8572 5.39455 17.5374 5.71434 17.1429 5.71434H3.57146C3.17698 5.71434 2.85718 5.39455 2.85718 5.00005Z" fill="#565656"/>
<path d="M2.85718 9.99988C2.85718 9.60538 3.17698 9.28552 3.57146 9.28552L11.4286 9.28574C11.8231 9.28574 12.1429 9.60552 12.1429 10C12.1429 10.3945 11.8231 10.7143 11.4286 10.7143L3.57146 10.7142C3.17698 10.7142 2.85718 10.3943 2.85718 9.99988Z" fill="#565656"/>
<path d="M3.57146 14.2855C3.17698 14.2855 2.85718 14.6053 2.85718 14.9998C2.85718 15.3942 3.17698 15.714 3.57146 15.714H15.7143C16.1088 15.714 16.4286 15.3942 16.4286 14.9998C16.4286 14.6053 16.1088 14.2855 15.7143 14.2855H3.57146Z" fill="#565656"/>
</svg>
