<svg width="24" height="24" viewBox="0 0 24 24" fill="none" xmlns="http://www.w3.org/2000/svg">
<path d="M21.1406 4.15312C21.5063 4.50938 21.6891 4.94531 21.6891 5.47031V22.0359C21.6891 22.5375 21.5063 22.9687 21.1406 23.325C20.775 23.6812 20.3438 23.8594 19.8375 23.8594H6.1875C5.66719 23.8594 5.22656 23.6812 4.87031 23.325C4.51406 22.9687 4.33594 22.5375 4.33594 22.0359V20.7609H3.14063C2.62031 20.7609 2.17969 20.5781 1.82344 20.2125C1.46719 19.8469 1.28906 19.4156 1.28906 18.9094V2.34375C1.28906 1.82344 1.46719 1.38281 1.82344 1.02656C2.17969 0.670313 2.61563 0.492188 3.14063 0.492188H16.7906C17.2922 0.492188 17.7281 0.670313 18.0938 1.02656C18.4594 1.38281 18.6422 1.81875 18.6422 2.34375V3.61875H19.8422C20.3391 3.62344 20.775 3.80156 21.1406 4.15312ZM2.53125 19.4953C2.69531 19.6594 2.90156 19.7438 3.14531 19.7438H16.7953C17.0203 19.7438 17.2172 19.6594 17.3813 19.4953C17.5453 19.3312 17.6297 19.1344 17.6297 18.9094V2.34375C17.6297 2.1 17.5453 1.89844 17.3813 1.72969C17.2172 1.56563 17.0203 1.48125 16.7953 1.48125H3.12188C2.89688 1.48125 2.7 1.56563 2.53594 1.72969C2.37188 1.89375 2.2875 2.1 2.2875 2.34375V18.9094C2.28281 19.1344 2.3625 19.3312 2.53125 19.4953ZM4.02656 6.95625C3.88594 6.95625 3.76875 6.90469 3.675 6.80156C3.58125 6.69844 3.52969 6.57656 3.52969 6.43594C3.52969 6.29531 3.57656 6.17813 3.675 6.08438C3.76875 5.99063 3.88594 5.93906 4.02656 5.93906H15.6703C15.8109 5.93906 15.9281 5.98594 16.0219 6.08438C16.1156 6.17813 16.1672 6.29531 16.1672 6.43594C16.1672 6.57656 16.1203 6.69844 16.0219 6.80156C15.9281 6.90469 15.8109 6.95625 15.6703 6.95625H4.02656ZM4.02656 11.1234C3.88594 11.1234 3.76875 11.0766 3.675 10.9781C3.58125 10.8844 3.52969 10.7672 3.52969 10.6266C3.52969 10.4859 3.57656 10.3687 3.675 10.275C3.76875 10.1812 3.88594 10.1297 4.02656 10.1297H15.6703C15.8109 10.1297 15.9281 10.1766 16.0219 10.275C16.1156 10.3687 16.1672 10.4859 16.1672 10.6266C16.1672 10.7672 16.1203 10.8844 16.0219 10.9781C15.9281 11.0719 15.8109 11.1234 15.6703 11.1234H4.02656ZM16.0219 15.1453C15.9281 15.2391 15.8109 15.2906 15.6703 15.2906H4.02656C3.88594 15.2906 3.76875 15.2438 3.675 15.1453C3.58125 15.0516 3.52969 14.9344 3.52969 14.7938C3.52969 14.6531 3.57656 14.5359 3.675 14.4422C3.76875 14.3484 3.88594 14.2969 4.02656 14.2969H15.6703C15.8109 14.2969 15.9281 14.3438 16.0219 14.4422C16.1156 14.5359 16.1672 14.6531 16.1672 14.7938C16.1672 14.9344 16.1156 15.0516 16.0219 15.1453ZM20.6719 22.0359V5.44219C20.6719 5.21719 20.5922 5.02031 20.4375 4.85625C20.2828 4.69219 20.0813 4.60781 19.8375 4.60781H18.6375V18.9094C18.6375 19.4109 18.4547 19.8469 18.0891 20.2125C17.7234 20.5781 17.2922 20.7609 16.7859 20.7609H5.325V22.0359C5.325 22.2609 5.40938 22.4578 5.57344 22.6219C5.7375 22.7859 5.94375 22.8703 6.1875 22.8703H19.8375C20.0813 22.8703 20.2828 22.7859 20.4516 22.6219C20.6156 22.4578 20.7 22.2609 20.7 22.0359H20.6719Z" fill="#007BFF"/>
</svg>
