<svg width="20" height="20" viewBox="0 0 20 20" fill="none" xmlns="http://www.w3.org/2000/svg">
<g clip-path="url(#clip0_112_694)">
<path d="M16.8897 6.98661C15.8805 6.21915 14.8506 5.60642 13.8286 5.16556C12.5323 4.60634 11.2441 4.32278 10 4.32278C8.75594 4.32278 7.46781 4.60634 6.17148 5.16556C5.14945 5.60646 4.11957 6.21915 3.11039 6.98661C1.40094 8.28665 0 10 0 10C0 10 1.40094 11.7134 3.11031 13.0134C4.11949 13.7809 5.14938 14.3936 6.17141 14.8345C7.46773 15.3937 8.75586 15.6772 9.99996 15.6772C11.2441 15.6772 12.5322 15.3937 13.8285 14.8345C14.8505 14.3936 15.8804 13.7809 16.8896 13.0134C18.5991 11.7134 20 10 20 10C20 10 18.5991 8.28665 16.8897 6.98661ZM10 13.6752C7.98969 13.6752 6.35422 12.0265 6.35422 10C6.35422 7.97353 7.98973 6.32485 10 6.32485C11.0469 6.32485 11.992 6.77212 12.6575 7.48689C12.67 7.50017 12.6825 7.51341 12.6946 7.527C13.2852 8.18036 13.6458 9.04853 13.6458 10C13.6458 12.0265 12.0103 13.6752 10 13.6752Z" fill="#747474"/>
<path d="M11.2099 10.8783C10.1101 10.8783 9.21543 9.97638 9.21543 8.86774C9.21543 8.34501 9.41449 7.86837 9.74 7.51044C8.49238 7.64184 7.5166 8.70813 7.5166 9.99997C7.5166 11.3803 8.63059 12.5033 9.99988 12.5033C11.218 12.5033 12.2334 11.6143 12.4429 10.4463C12.1032 10.7165 11.6751 10.8783 11.2099 10.8783Z" fill="#747474"/>
<path d="M11.2099 8.02911C10.7511 8.02911 10.3779 8.40533 10.3779 8.86775C10.3779 9.33017 10.7511 9.70642 11.2099 9.70642C11.6686 9.70642 12.0418 9.33021 12.0418 8.86775C12.0418 8.64716 11.9562 8.44677 11.8176 8.29689C11.8087 8.28728 11.7996 8.27786 11.7906 8.26837C11.6406 8.12064 11.4357 8.02911 11.2099 8.02911Z" fill="#747474"/>
</g>
<defs>
<clipPath id="clip0_112_694">
<rect width="20" height="20" fill="white"/>
</clipPath>
</defs>
</svg>
