<svg width="20" height="20" viewBox="0 0 20 20" fill="none" xmlns="http://www.w3.org/2000/svg">
<g clip-path="url(#clip0_1403_16198)">
<path d="M16.8897 6.9866C15.8805 6.21914 14.8506 5.6064 13.8286 5.16554C12.5323 4.60632 11.2441 4.32277 10 4.32277C8.75594 4.32277 7.46781 4.60632 6.17148 5.16554C5.14945 5.60644 4.11957 6.21914 3.11039 6.9866C1.40094 8.28664 0 10 0 10C0 10 1.40094 11.7134 3.11031 13.0134C4.11949 13.7809 5.14938 14.3936 6.17141 14.8344C7.46773 15.3937 8.75586 15.6772 9.99996 15.6772C11.2441 15.6772 12.5322 15.3937 13.8285 14.8344C14.8505 14.3936 15.8804 13.7809 16.8896 13.0134C18.5991 11.7134 20 10 20 10C20 10 18.5991 8.28664 16.8897 6.9866ZM10 13.6752C7.98969 13.6752 6.35422 12.0265 6.35422 10C6.35422 7.97351 7.98973 6.32484 10 6.32484C11.0469 6.32484 11.992 6.77211 12.6575 7.48687C12.67 7.50015 12.6825 7.51339 12.6946 7.52699C13.2852 8.18035 13.6458 9.04851 13.6458 10C13.6458 12.0265 12.0103 13.6752 10 13.6752Z" fill="#747474"/>
<path d="M11.2099 10.8783C10.1101 10.8783 9.21543 9.97638 9.21543 8.86774C9.21543 8.34501 9.41449 7.86837 9.74 7.51044C8.49238 7.64184 7.5166 8.70813 7.5166 9.99997C7.5166 11.3803 8.63059 12.5033 9.99988 12.5033C11.218 12.5033 12.2334 11.6143 12.4429 10.4463C12.1032 10.7165 11.6751 10.8783 11.2099 10.8783Z" fill="#747474"/>
<path d="M11.2099 8.0291C10.7511 8.0291 10.3779 8.40531 10.3779 8.86773C10.3779 9.33015 10.7511 9.7064 11.2099 9.7064C11.6686 9.7064 12.0418 9.33019 12.0418 8.86773C12.0418 8.64715 11.9562 8.44675 11.8176 8.29687C11.8087 8.28726 11.7996 8.27785 11.7906 8.26836C11.6406 8.12062 11.4357 8.0291 11.2099 8.0291Z" fill="#747474"/>
<rect x="3.04956" y="2" width="20.3278" height="1.45811" rx="0.729055" transform="rotate(46.0371 3.04956 2)" fill="#747474"/>
</g>
<defs>
<clipPath id="clip0_1403_16198">
<rect width="20" height="20" fill="white"/>
</clipPath>
</defs>
</svg>
