<svg width="20" height="20" viewBox="0 0 20 20" fill="none" xmlns="http://www.w3.org/2000/svg">
<g clip-path="url(#clip0_1_592)">
<path d="M16.0675 0.182503C15.9503 0.0653338 15.7914 -0.000488281 15.6256 -0.000488281C15.4599 -0.000488281 15.301 0.0653338 15.1838 0.182503L13.125 2.24125L17.7588 6.875L19.8175 4.8175C19.8757 4.75945 19.9219 4.69048 19.9534 4.61455C19.9849 4.53861 20.0011 4.45721 20.0011 4.375C20.0011 4.29279 19.9849 4.21139 19.9534 4.13546C19.9219 4.05953 19.8757 3.99056 19.8175 3.9325L16.0675 0.182503ZM16.875 7.75875L12.2413 3.125L4.11625 11.25H4.375C4.54076 11.25 4.69973 11.3159 4.81694 11.4331C4.93415 11.5503 5 11.7092 5 11.875V12.5H5.625C5.79076 12.5 5.94973 12.5659 6.06694 12.6831C6.18415 12.8003 6.25 12.9592 6.25 13.125V13.75H6.875C7.04076 13.75 7.19973 13.8159 7.31694 13.9331C7.43415 14.0503 7.5 14.2092 7.5 14.375V15H8.125C8.29076 15 8.44973 15.0659 8.56694 15.1831C8.68415 15.3003 8.75 15.4592 8.75 15.625V15.8838L16.875 7.75875ZM7.54 17.0938C7.5137 17.0238 7.50015 16.9497 7.5 16.875V16.25H6.875C6.70924 16.25 6.55027 16.1842 6.43306 16.0669C6.31585 15.9497 6.25 15.7908 6.25 15.625V15H5.625C5.45924 15 5.30027 14.9342 5.18306 14.8169C5.06585 14.6997 5 14.5408 5 14.375V13.75H4.375C4.20924 13.75 4.05027 13.6842 3.93306 13.5669C3.81585 13.4497 3.75 13.2908 3.75 13.125V12.5H3.125C3.05028 12.4999 2.97619 12.4863 2.90625 12.46L2.6825 12.6825C2.62294 12.7425 2.57616 12.8139 2.545 12.8925L0.0450017 19.1425C-0.000461602 19.2561 -0.011591 19.3805 0.0129933 19.5004C0.0375777 19.6202 0.0967945 19.7302 0.183303 19.8167C0.269811 19.9032 0.379806 19.9624 0.499651 19.987C0.619496 20.0116 0.743922 20.0005 0.857502 19.955L7.1075 17.455C7.18608 17.4238 7.25752 17.3771 7.3175 17.3175L7.54 17.0938Z" fill="#565656"/>
</g>
<defs>
<clipPath id="clip0_1_592">
<rect width="20" height="20" fill="white"/>
</clipPath>
</defs>
</svg>
