<svg width="24" height="24" viewBox="0 0 24 24" fill="none" xmlns="http://www.w3.org/2000/svg">
<mask id="mask0_112_2836" style="mask-type:alpha" maskUnits="userSpaceOnUse" x="0" y="0" width="24" height="24">
<rect width="24" height="24" fill="#D9D9D9"/>
</mask>
<g mask="url(#mask0_112_2836)">
<path d="M12 23.0001C14.2333 23.0001 16.125 22.2251 17.675 20.6751C19.225 19.1251 20 17.2334 20 15.0001C20 12.7667 19.225 10.8751 17.675 9.32506C16.125 7.77506 14.2333 7.00006 12 7.00006C10.85 7.00006 9.75 7.23756 8.7 7.71256C7.65 8.18756 6.75 8.86673 6 9.75006V7.00006H4V14.0001H11V12.0001H6.8C7.33333 11.0667 8.0625 10.3334 8.9875 9.80006C9.9125 9.26673 10.9167 9.00006 12 9.00006C13.6667 9.00006 15.0833 9.58339 16.25 10.7501C17.4167 11.9167 18 13.3334 18 15.0001C18 16.6667 17.4167 18.0834 16.25 19.2501C15.0833 20.4167 13.6667 21.0001 12 21.0001C10.7167 21.0001 9.55833 20.6334 8.525 19.9001C7.49167 19.1667 6.76667 18.2001 6.35 17.0001H4.25C4.71667 18.7667 5.66667 20.2084 7.1 21.3251C8.53333 22.4417 10.1667 23.0001 12 23.0001Z" fill="#747474"/>
</g>
</svg>
