<svg width="40" height="40" viewBox="0 0 40 40" fill="none" xmlns="http://www.w3.org/2000/svg">
<g clip-path="url(#clip0_1_498)">
<path fill-rule="evenodd" clip-rule="evenodd" d="M20.0781 1.5625V2.64062C20.0781 3.53906 20.1016 3.75781 20.2344 4.02344C20.3203 4.21094 20.5 4.40625 20.6797 4.50781C20.8438 4.60156 21.0938 4.67969 21.2266 4.6875C21.3672 4.6875 21.625 4.61719 21.7969 4.53125C22.0052 4.42708 22.1615 4.27083 22.2656 4.0625C22.3984 3.79688 22.4219 3.59375 22.4219 1.5625H24.5312C26.5859 1.5625 26.6484 1.57031 26.9219 1.74219C27.0781 1.83594 27.2734 2.04687 27.3516 2.21094C27.4922 2.47656 27.5 2.73438 27.5 8.75H15V5.625C15 2.74219 15.0078 2.47656 15.1484 2.20313C15.2266 2.04688 15.4063 1.83594 15.5547 1.74219C15.8125 1.58594 15.9062 1.57812 20.0781 1.5625ZM7.55469 4.84375C10.7812 4.84375 10.9531 4.85156 11.25 5C11.4297 5.09375 11.6172 5.26562 11.6953 5.40625C11.7656 5.54687 12.0391 6.875 12.7813 11.0547L26.0156 11.0938C39.1016 11.1328 39.2578 11.1328 39.4766 11.2891C39.6016 11.375 39.7656 11.5625 39.8516 11.6953C39.9297 11.8359 40 12.0469 40 12.1641C40 12.2891 39.2969 15.7734 38.4375 19.9219C37.5547 24.1641 36.8047 27.6094 36.7188 27.7969C36.6094 28.0312 36.4688 28.1719 36.25 28.2812C35.9453 28.4375 35.7812 28.4375 24.7656 28.4375C15.6016 28.4375 13.5469 28.4531 13.3359 28.5391C13.2031 28.6016 12.9688 28.7734 12.8359 28.9297C12.6953 29.0937 12.5547 29.3359 12.5312 29.4766C12.5078 29.6094 12.5078 29.8594 12.5312 30.0234C12.5547 30.1875 12.6875 30.4297 12.8359 30.6016C12.9688 30.7578 13.2031 30.9297 13.3438 30.9922C13.5469 31.0781 15.5547 31.0938 24.4531 31.0938C35.1562 31.0938 35.3203 31.0938 35.625 31.25C35.8333 31.3542 35.9896 31.5104 36.0938 31.7188C36.1797 31.8906 36.25 32.1406 36.25 32.2656C36.25 32.3906 36.1797 32.6406 36.0938 32.8125C35.9896 33.0208 35.8333 33.1771 35.625 33.2812C35.3516 33.4141 35.1562 33.4375 34.1016 33.4375C32.9844 33.4375 32.8906 33.4453 32.9375 33.5781C32.9609 33.6484 33.0156 33.8906 33.0625 34.1016C33.1094 34.3203 33.125 34.7344 33.1016 35.0391C33.0781 35.3438 32.9766 35.7969 32.8828 36.0547C32.7812 36.3125 32.5469 36.7344 32.3516 36.9922C32.1562 37.25 31.7969 37.5938 31.5625 37.75C31.3281 37.9141 30.9062 38.1406 30.625 38.2422C30.2344 38.3906 29.9688 38.4375 29.4531 38.4375C28.9219 38.4375 28.6875 38.3984 28.2812 38.2422C28 38.1328 27.6016 37.9297 27.3906 37.7891C27.1797 37.6484 26.8828 37.3984 26.7266 37.2188C26.5703 37.0391 26.3516 36.7266 26.2344 36.5156C26.1172 36.3047 25.9688 35.9219 25.9062 35.6641C25.8359 35.4062 25.7812 35 25.7812 34.7656C25.7812 34.5312 25.8125 34.2109 25.8516 34.0625C25.8828 33.9141 25.9375 33.7109 26.0156 33.4375H23.8281C21.7812 33.4375 21.6406 33.4453 21.6875 33.5781C21.7109 33.6484 21.7656 33.8906 21.8125 34.1016C21.8594 34.3203 21.875 34.7344 21.8516 35.0391C21.8281 35.3438 21.7266 35.7969 21.6328 36.0547C21.5312 36.3125 21.2969 36.7344 21.1016 36.9922C20.9062 37.25 20.5469 37.5938 20.3125 37.75C20.0781 37.9141 19.6562 38.1406 19.375 38.2422C18.9844 38.3906 18.7188 38.4375 18.2031 38.4375C17.6719 38.4375 17.4375 38.3984 17.0312 38.2422C16.75 38.1328 16.3516 37.9297 16.1406 37.7891C15.9297 37.6484 15.6328 37.3984 15.4766 37.2188C15.3203 37.0391 15.1016 36.7266 14.9844 36.5156C14.8672 36.3047 14.7188 35.9219 14.6563 35.6641C14.5859 35.4062 14.5312 35 14.5312 34.7656C14.5312 34.5312 14.5625 34.2109 14.6016 34.0625C14.6328 33.9141 14.6875 33.7109 14.7109 33.6172C14.7656 33.4453 14.75 33.4375 14.1641 33.4375C13.8281 33.4375 13.3594 33.4062 13.125 33.3594C12.8906 33.3125 12.4688 33.1719 12.1875 33.0312C11.8906 32.8906 11.5 32.6016 11.2422 32.3516C11 32.1016 10.7031 31.6953 10.5547 31.4062C10.3906 31.0781 10.2734 30.6797 10.2188 30.2734C10.1484 29.8281 10.1484 29.5156 10.2031 29.1797C10.25 28.9219 10.375 28.5156 10.4844 28.2812C10.5938 28.0469 10.7969 27.7031 10.9297 27.5234C11.0625 27.3359 11.3906 27.0234 11.6641 26.8281C11.9297 26.6328 12.3516 26.3984 12.6094 26.3047C13.0156 26.1484 13.0625 26.1094 13.0313 25.9375C13.0156 25.8281 12.2656 21.5703 9.72656 7.1875H6.97656C4.375 7.1875 4.20312 7.17969 3.90625 7.03125C3.69792 6.92708 3.54167 6.77083 3.4375 6.5625C3.35156 6.39062 3.28125 6.14844 3.28125 6.01562C3.28125 5.88281 3.35156 5.64062 3.4375 5.46875C3.53906 5.27344 3.70312 5.10156 3.89062 5C4.16406 4.85938 4.35938 4.85156 7.5625 4.84375H7.55469ZM4.27344 11.0156C7.49219 11.0156 7.66406 11.0234 7.96094 11.1719C8.16927 11.276 8.32552 11.4323 8.42969 11.6406C8.51562 11.8125 8.58594 12.0547 8.58594 12.1875C8.58594 12.3203 8.51562 12.5625 8.42969 12.7344C8.32552 12.9427 8.16927 13.099 7.96094 13.2031C7.66406 13.3516 7.49219 13.3594 4.28906 13.3594C1.17187 13.3594 0.90625 13.3516 0.640625 13.2109C0.476563 13.1328 0.265625 12.9375 0.171875 12.7812C0.0703125 12.625 -0.0078125 12.375 -0.0078125 12.2266C-0.0078125 12.0781 0.0625 11.8125 0.148438 11.6406C0.25 11.4453 0.414062 11.2734 0.601562 11.1719C0.875 11.0312 1.07031 11.0234 4.27344 11.0156ZM33.1562 4.6875L33.2188 5.21094C33.2578 5.53125 33.3516 5.85156 33.4531 6.00781C33.5469 6.16406 33.7656 6.34375 33.9375 6.42188C34.1094 6.5 34.3203 6.5625 34.4062 6.5625C34.4922 6.5625 34.7109 6.49219 34.8984 6.40625C35.0781 6.32031 35.2969 6.14062 35.3828 5.99219C35.5 5.80469 35.5391 5.60156 35.5391 4.6875H36.7109C37.7266 4.6875 37.9219 4.71094 38.1953 4.84375C38.4036 4.94792 38.5599 5.10417 38.6641 5.3125C38.8047 5.59375 38.8203 5.78125 38.8203 8.75H29.9922V7.1875C29.9922 5.78125 30.0078 5.59375 30.1484 5.3125C30.25 5.11719 30.4141 4.94531 30.6016 4.84375C30.8516 4.71875 31.0547 4.69531 33.1562 4.6875ZM5.51562 15.3906C8.11719 15.3906 8.28906 15.3984 8.58594 15.5469C8.79427 15.651 8.95052 15.8073 9.05469 16.0156C9.14062 16.1875 9.21094 16.4297 9.21094 16.5625C9.21094 16.6953 9.14062 16.9375 9.05469 17.1094C8.95052 17.3177 8.79427 17.474 8.58594 17.5781C8.28906 17.7266 8.11719 17.7344 5.53906 17.7344C2.96094 17.7344 2.78906 17.7266 2.49219 17.5781C2.28385 17.474 2.1276 17.3177 2.02344 17.1094C1.9375 16.9375 1.86719 16.6953 1.86719 16.5625C1.86719 16.4297 1.9375 16.1875 2.02344 16.0156C2.125 15.8203 2.28906 15.6484 2.47656 15.5469C2.75 15.4062 2.94531 15.3984 5.52344 15.3906H5.51562ZM6.80469 19.7656C8.82031 19.7656 8.99219 19.7734 9.28125 19.9219C9.48958 20.026 9.64583 20.1823 9.75 20.3906C9.83594 20.5625 9.90625 20.8125 9.90625 20.9375C9.90625 21.0625 9.83594 21.3125 9.75 21.4844C9.64583 21.6927 9.48958 21.849 9.28125 21.9531C8.99219 22.1016 8.8125 22.1094 6.82031 22.1094C4.82812 22.1094 4.64844 22.1016 4.35938 21.9531C4.15104 21.849 3.99479 21.6927 3.89062 21.4844C3.80469 21.3125 3.73437 21.0625 3.73437 20.9375C3.73437 20.8125 3.80469 20.5625 3.89062 20.3906C3.99219 20.1953 4.15625 20.0234 4.34375 19.9219C4.60938 19.7812 4.80469 19.7734 6.80469 19.7656Z" fill="#007BFF"/>
</g>
<defs>
<clipPath id="clip0_1_498">
<rect width="40" height="40" fill="white"/>
</clipPath>
</defs>
</svg>
