<svg width="24" height="24" viewBox="0 0 24 24" fill="none" xmlns="http://www.w3.org/2000/svg">
<path d="M24 2.97949C24 2.13949 23.3166 1.45605 22.4766 1.45605H5.26064C5.06644 1.45605 4.90908 1.61346 4.90908 1.80762C4.90908 2.00177 5.06644 2.15918 5.26064 2.15918H22.4766C22.9289 2.15918 23.2969 2.5272 23.2969 2.97949V6.55226H0.703125V2.97949C0.703125 2.5272 1.07114 2.15918 1.52344 2.15918H3.85439C4.04859 2.15918 4.20595 2.00177 4.20595 1.80762C4.20595 1.61346 4.04859 1.45605 3.85439 1.45605H1.52344C0.683391 1.45605 0 2.13949 0 2.97949V20.4861C0 21.6208 0.923156 22.5439 2.05786 22.5439H11.9079C12.1021 22.5439 12.2595 22.3865 12.2595 22.1924C12.2595 21.9982 12.1021 21.8408 11.9079 21.8408H8.46863V17.4477H15.5311V21.8408H13.3142C13.12 21.8408 12.9626 21.9982 12.9626 22.1924C12.9626 22.3865 13.12 22.5439 13.3142 22.5439H21.9421C23.0768 22.5439 24 21.6208 24 20.4861V2.97949H24ZM0.703125 12.3516H7.7655V16.7447H0.703125V12.3516ZM0.703125 11.6485V7.25543H7.7655V11.6485H0.703125ZM8.46863 7.25543H15.5311V11.6485H8.46863V7.25543ZM16.2343 7.25543H23.2969V11.6485H16.2343V7.25543ZM23.2969 12.3516V16.7447H16.2343V12.3516H23.2969ZM7.7655 21.8409H2.05786C1.31086 21.8409 0.703125 21.2331 0.703125 20.4861V17.4478H7.7655V21.8409ZM8.46863 16.7447V12.3516H15.5311V16.7447H8.46863ZM21.9421 21.8409H16.2343V17.4478H23.2969V20.4861C23.2969 21.2331 22.6891 21.8409 21.9421 21.8409Z" fill="#007BFF"/>
</svg>
