<svg width="23" height="20" viewBox="0 0 23 20" fill="none" xmlns="http://www.w3.org/2000/svg">
<path d="M11.9386 0.0153948C5.73938 -0.299831 0.55957 4.26625 0.55957 10.0018C0.55957 15.5289 5.41598 19.9983 11.3356 19.9983C17.3267 19.9983 22.2324 15.4323 22.1172 9.79833C22.0077 4.59669 17.5349 0.300078 11.9386 0.0153948ZM18.5106 15.6305C17.9295 14.2068 16.4496 13.1949 14.7121 13.1949H8.06342C6.29842 13.1949 4.7966 14.2423 4.23756 15.7068C2.76315 14.1306 1.92992 12.112 1.92992 10.0018C1.92992 4.98311 6.46294 1.01194 11.8674 1.28662C16.7511 1.53064 20.6483 5.28322 20.747 9.82387C20.7908 11.9645 19.9796 14.0186 18.5106 15.6305Z" fill="#747474"/>
<path d="M11.3903 11.2476C13.5275 11.2476 15.2601 9.64035 15.2601 7.65773C15.2601 5.6751 13.5275 4.06787 11.3903 4.06787C9.25308 4.06787 7.52051 5.6751 7.52051 7.65773C7.52051 9.64035 9.25308 11.2476 11.3903 11.2476Z" fill="#747474"/>
</svg>
