<svg width="40" height="40" viewBox="0 0 40 40" fill="none" xmlns="http://www.w3.org/2000/svg">
<path fill-rule="evenodd" clip-rule="evenodd" d="M19.8828 3.44531C20.4844 3.44531 21.1875 3.46875 21.4453 3.50781C21.7031 3.55469 22.1953 3.625 22.539 3.67188C22.8828 3.72656 23.625 3.88281 24.1797 4.02344C24.7344 4.16406 25.5625 4.42969 26.0156 4.60938C26.4687 4.78906 27.1719 5.10938 27.5781 5.3125C27.9844 5.52344 28.6875 5.9375 29.1406 6.24219C29.5937 6.53906 30.3437 7.11719 30.8203 7.51562C31.2969 7.92188 32 8.61719 32.3828 9.07031C32.7734 9.51562 33.2812 10.1641 33.5234 10.5078C33.7656 10.8516 34.1562 11.4609 34.3828 11.8594C34.6172 12.2578 34.8281 12.5547 34.8515 12.5234C34.8828 12.4922 34.9609 12.2812 35.0234 12.0703C35.0937 11.8516 35.2109 11.6172 35.289 11.5391C35.3672 11.4688 35.5703 11.3828 35.7422 11.3594C35.9297 11.3359 36.1328 11.3672 36.25 11.4219C36.3594 11.4766 36.5078 11.6641 36.7344 12.1484L36.3359 13.5547C36.1094 14.3281 35.8594 15.0781 35.7812 15.2188C35.6719 15.3984 35.539 15.4922 35.3125 15.5469C35.039 15.6172 34.8281 15.5781 33.4922 15.1953C32.4765 14.8984 31.9375 14.7031 31.8125 14.5859C31.7187 14.4922 31.6172 14.2891 31.5859 14.1406C31.5547 13.9453 31.5859 13.7891 31.6875 13.6094C31.7734 13.4688 31.9453 13.3125 32.0703 13.2656C32.2031 13.2188 32.4375 13.2031 32.6172 13.2266C32.789 13.2578 33.0156 13.3047 33.3047 13.3984L33.125 13.0469C33.0312 12.8516 32.7734 12.4141 32.5547 12.0703C32.3437 11.7266 31.9531 11.1641 31.6797 10.8203C31.4062 10.4766 30.8437 9.85156 30.4219 9.4375C29.9922 9.01563 29.4375 8.51562 29.1797 8.3125C28.9219 8.10938 28.4297 7.76562 28.0859 7.53906C27.7422 7.3125 27.1094 6.95312 26.6797 6.73438C26.25 6.52344 25.5625 6.22656 25.1562 6.07031C24.75 5.92188 24.1172 5.71875 23.75 5.625C23.3828 5.53125 22.8047 5.40625 22.4609 5.33594C22.1172 5.27344 21.2422 5.20313 20.5078 5.17969C19.6875 5.14844 18.8672 5.17188 18.3594 5.22656C17.9062 5.28125 17.2187 5.39062 16.8359 5.47656C16.4531 5.5625 15.7109 5.77344 15.1953 5.94531C14.6797 6.11719 13.875 6.45312 13.3984 6.69531C12.9219 6.92969 12.2422 7.32031 11.875 7.55469C11.5078 7.79688 10.9687 8.1875 10.664 8.42969C10.3672 8.67188 9.85154 9.13281 9.53123 9.45312C9.20311 9.77344 8.74998 10.2656 8.51561 10.5469C8.28904 10.8281 7.89061 11.375 7.63279 11.7578C7.38279 12.1406 6.99217 12.7891 6.77342 13.1953C6.54686 13.6016 6.29686 13.9766 6.21092 14.0391C6.12498 14.0938 5.95311 14.1406 5.82029 14.1406C5.68748 14.1406 5.46873 14.0703 5.33592 13.9844C5.16404 13.8828 5.04686 13.7266 4.99217 13.5312C4.91404 13.2656 4.92967 13.1875 5.27342 12.5C5.46873 12.0938 5.89061 11.375 6.21092 10.8984C6.52342 10.4219 7.06248 9.70312 7.39842 9.29688C7.74217 8.89062 8.32029 8.28125 8.67967 7.95313C9.03904 7.625 9.54686 7.1875 9.80467 6.98438C10.0625 6.78125 10.5937 6.40625 10.9765 6.14844C11.3594 5.89844 12.1719 5.44531 12.7734 5.15625C13.375 4.85938 14.2344 4.5 14.6875 4.35156C15.1406 4.20313 15.8281 4.00781 16.2109 3.91406C16.5937 3.82031 17.3359 3.67969 17.8515 3.60156C18.3906 3.51562 19.2578 3.45312 19.8828 3.44531ZM4.88279 24.375C4.92967 24.375 5.59373 24.5547 6.36717 24.7734C7.14061 24.9922 7.86717 25.2266 7.99217 25.2812C8.10936 25.3438 8.25779 25.5078 8.32811 25.6406C8.40623 25.8047 8.43748 25.9922 8.40623 26.1484C8.38279 26.2969 8.25779 26.4922 8.12498 26.6016C7.97654 26.7188 7.79686 26.7969 7.64061 26.7969C7.49998 26.7969 7.24217 26.7578 7.07029 26.7109C6.89842 26.6719 6.74998 26.6562 6.74217 26.6797C6.72654 26.7031 6.92967 27.0781 7.18748 27.5156C7.44529 27.9609 7.88279 28.6172 8.15623 28.9844C8.42967 29.3516 8.97654 29.9844 9.38279 30.3906C9.78904 30.8047 10.3672 31.3359 10.664 31.5703C10.9609 31.8125 11.5312 32.2109 11.914 32.4688C12.2969 32.7188 12.9844 33.1094 13.4375 33.3359C13.8906 33.5547 14.6797 33.8828 15.1953 34.0547C15.7109 34.2266 16.4687 34.4375 16.875 34.5234C17.2812 34.6094 17.9687 34.7266 18.3984 34.7734C18.875 34.8281 19.6953 34.8516 20.5078 34.8203C21.2422 34.7969 22.1172 34.7266 22.4609 34.6641C22.8047 34.5938 23.3828 34.4688 23.75 34.375C24.1172 34.2812 24.75 34.0859 25.1562 33.9297C25.5625 33.7812 26.3359 33.4297 26.875 33.1562C27.414 32.875 28.1875 32.4141 28.5937 32.125C29 31.8359 29.75 31.1953 30.2656 30.7031C30.7734 30.2109 31.414 29.5234 31.6797 29.1797C31.9531 28.8359 32.3437 28.2734 32.5547 27.9297C32.7734 27.5859 33.0703 27.0625 33.2187 26.7578C33.3672 26.4531 33.5937 26.1328 33.7187 26.0312C33.8437 25.9375 34.039 25.8516 34.164 25.8594C34.2812 25.8594 34.4531 25.8984 34.5547 25.9453C34.6484 25.9922 34.789 26.1094 34.8594 26.2031C34.9375 26.2969 35 26.5 35 26.6797C35 26.9062 34.8906 27.1953 34.6015 27.7344C34.3828 28.1406 33.9922 28.7969 33.7344 29.1797C33.4687 29.5625 33.0469 30.1484 32.7812 30.4688C32.5234 30.7891 32.0234 31.3359 31.6797 31.6797C31.3359 32.0234 30.789 32.5234 30.4687 32.7891C30.1484 33.0469 29.5469 33.4844 29.1406 33.7578C28.7344 34.0391 28.0469 34.4453 27.6172 34.6641C27.1875 34.8828 26.5 35.1953 26.0937 35.3516C25.6875 35.5156 25.1406 35.7109 24.8828 35.7891C24.625 35.8672 24.0937 36.0078 23.7109 36.0938C23.3281 36.1875 22.5469 36.3281 21.9922 36.4141C21.4297 36.4922 20.539 36.5625 20 36.5625C19.4609 36.5625 18.8125 36.5312 18.5547 36.4922C18.2969 36.4453 17.8047 36.375 17.4609 36.3281C17.1172 36.2812 16.4844 36.1484 16.0547 36.0469C15.625 35.9375 14.9531 35.7422 14.5703 35.6172C14.1875 35.4844 13.4453 35.1719 12.9297 34.9297C12.414 34.6797 11.6719 34.2812 11.289 34.0469C10.9062 33.8047 10.3203 33.4062 9.99217 33.1484C9.66404 32.8984 9.08592 32.4141 8.70311 32.0703C8.32811 31.7266 7.74217 31.1094 7.40623 30.7031C7.06248 30.2969 6.57811 29.6641 6.32811 29.2969C6.07811 28.9297 5.71873 28.3359 5.52342 27.9688C5.33592 27.6016 5.15623 27.3359 5.13279 27.3828C5.11717 27.4297 5.03904 27.6641 4.96873 27.9062C4.86717 28.2656 4.78904 28.3906 4.59373 28.5156C4.45311 28.6016 4.21873 28.6719 4.08592 28.6719C3.92186 28.6719 3.74217 28.5938 3.59373 28.4766C3.46873 28.3672 3.33592 28.1875 3.31248 28.0625C3.28123 27.9297 3.41404 27.3359 3.67186 26.4062C3.89842 25.6094 4.13279 24.8828 4.20311 24.7812C4.26561 24.6797 4.42967 24.5469 4.56248 24.4922C4.69529 24.4297 4.84373 24.3828 4.88279 24.375ZM19.9453 8.36719C20.7578 8.35938 21.3515 8.40625 21.9687 8.50781C22.4531 8.59375 23.1875 8.77344 23.5937 8.90625C24 9.03906 24.6875 9.32031 25.1172 9.53125C25.5469 9.73438 26.1406 10.0781 26.4453 10.2813C26.75 10.4766 27.2734 10.8828 27.6172 11.1719C27.9609 11.4688 28.4844 11.9922 28.789 12.3438C29.0937 12.6953 29.5234 13.2656 29.7578 13.6172C29.9844 13.9688 30.3281 14.5781 30.5156 14.9609C30.7031 15.3438 30.9609 16 31.0937 16.4062C31.2265 16.8125 31.4062 17.5703 31.5 18.0859C31.6328 18.875 31.6484 19.2344 31.6172 20.3516C31.5859 21.2266 31.5234 21.9219 31.4219 22.3828C31.3359 22.7656 31.1719 23.3672 31.0625 23.7109C30.9453 24.0547 30.6953 24.6562 30.5156 25.0391C30.3281 25.4219 29.9844 26.0312 29.7578 26.3828C29.5234 26.7344 29.0937 27.3047 28.789 27.6562C28.4844 28.0078 28 28.5078 27.6953 28.7578C27.3906 29.0078 27.1406 29.2109 27.125 29.1953C27.1094 29.1875 27.1406 28.9375 27.1953 28.6328C27.25 28.3281 27.2969 27.7031 27.289 27.2266C27.289 26.6328 27.2344 26.1562 27.1172 25.6875C27.0312 25.3047 26.8672 24.7812 26.7578 24.5156C26.6484 24.2422 26.3906 23.7578 26.1875 23.4375C25.9844 23.1172 25.6094 22.625 25.3515 22.3516C25.0937 22.0781 24.6875 21.7031 24.4531 21.5234C24.2187 21.3438 23.7969 21.0625 23.5156 20.9141C23.2344 20.7578 22.75 20.5391 22.4375 20.4297C22.1328 20.3203 21.5469 20.1797 21.1484 20.1094C20.6406 20.0156 20.2031 19.9922 19.6484 20.0312C19.2187 20.0547 18.6406 20.1328 18.3594 20.1953C18.0781 20.2578 17.5703 20.4297 17.2265 20.5625C16.8828 20.7031 16.3047 21.0156 15.9375 21.2578C15.5703 21.5 15.0234 21.9609 14.7265 22.2734C14.4219 22.5938 14.0156 23.1172 13.8125 23.4375C13.6094 23.7578 13.3515 24.2422 13.2422 24.5156C13.1328 24.7812 12.9687 25.3047 12.8828 25.6875C12.7656 26.1484 12.7109 26.6406 12.7109 27.2266C12.7031 27.7031 12.7422 28.3281 12.8047 28.6328C12.8594 28.9375 12.8906 29.1875 12.875 29.1953C12.8594 29.2109 12.5859 28.9922 12.2656 28.7188C11.9453 28.4453 11.4453 27.9453 11.164 27.6016C10.875 27.2656 10.4375 26.6719 10.1875 26.2891C9.93748 25.9062 9.60154 25.3047 9.44529 24.9609C9.28123 24.6172 9.05467 24.0547 8.94529 23.7109C8.82811 23.3672 8.66404 22.7656 8.57811 22.3828C8.47654 21.9219 8.41404 21.2266 8.38279 20.3516C8.35154 19.2344 8.36717 18.875 8.49998 18.0859C8.59373 17.5703 8.77342 16.8125 8.90623 16.4062C9.03904 16 9.28123 15.3828 9.44529 15.0391C9.60154 14.6953 9.93748 14.0938 10.1875 13.7109C10.4375 13.3281 10.8828 12.7266 11.1719 12.3828C11.4609 12.0391 11.9922 11.5078 12.3437 11.2109C12.6953 10.9141 13.2656 10.4766 13.6172 10.2422C13.9687 10.0156 14.5781 9.67188 14.9609 9.48438C15.3437 9.29688 16 9.03906 16.4062 8.90625C16.8125 8.77344 17.5156 8.59375 17.9687 8.51562C18.5 8.42188 19.1875 8.36719 19.9375 8.36719H19.9453ZM18.7969 11.8906C18.539 11.9766 18.1875 12.1406 18.0156 12.25C17.8437 12.3594 17.5469 12.6172 17.3515 12.8125C17.1562 13.0156 16.8906 13.4062 16.75 13.6797C16.6015 13.9688 16.4609 14.4219 16.4062 14.7656C16.3281 15.2266 16.3281 15.4688 16.4062 15.8984C16.4609 16.1953 16.6094 16.6719 16.75 16.9531C16.8984 17.2656 17.164 17.625 17.4297 17.8906C17.6719 18.125 18.0937 18.4297 18.375 18.5703C18.6562 18.7109 19.1328 18.8594 19.4609 18.9219C19.9297 19 20.1562 19 20.5937 18.9219C20.8984 18.8672 21.3672 18.7109 21.6484 18.5703C21.9375 18.4297 22.3359 18.1328 22.5859 17.8906C22.8359 17.6406 23.125 17.2422 23.2656 16.9531C23.4062 16.6719 23.5547 16.1953 23.6094 15.8984C23.6797 15.4766 23.6797 15.2188 23.6094 14.7656C23.5547 14.4219 23.414 13.9688 23.2656 13.6797C23.125 13.4062 22.8594 13.0156 22.664 12.8125C22.4687 12.6172 22.1562 12.3516 21.9609 12.2266C21.7656 12.1094 21.414 11.9375 21.1797 11.8594C20.9453 11.7812 20.5078 11.7031 20.2031 11.6797C19.9062 11.6641 19.5703 11.6719 19.4609 11.6875C19.3515 11.7109 19.0547 11.7969 18.7969 11.8906ZM20.3594 21.6953C20.7031 21.7188 21.2265 21.8047 21.5312 21.8906C21.8359 21.9766 22.3594 22.1875 22.7031 22.3672C23.1562 22.6016 23.5 22.8594 23.9531 23.3203C24.2969 23.6641 24.7109 24.1719 24.875 24.4531C25.039 24.7344 25.2578 25.2422 25.375 25.5859C25.5234 26.0547 25.5859 26.4297 25.6094 27.0703C25.6328 27.6719 25.6094 28.1016 25.5234 28.5156C25.4531 28.8438 25.25 29.4141 25.0547 29.8047C24.8594 30.1875 24.6406 30.5781 24.5625 30.6641C24.4844 30.75 24.0703 30.9375 23.6406 31.0781C23.2109 31.2187 22.4375 31.4062 21.9219 31.5C21.1328 31.6328 20.7734 31.6484 19.6562 31.6172C18.75 31.5859 18.1015 31.5234 17.625 31.4219C17.2422 31.3359 16.625 31.1641 16.2578 31.0391C15.8984 30.9219 15.5312 30.75 15.4531 30.6641C15.375 30.5781 15.1562 30.1875 14.9609 29.8047C14.7656 29.4141 14.5625 28.8438 14.4922 28.5156C14.4062 28.1016 14.3828 27.6719 14.4062 27.0703C14.4297 26.4297 14.4922 26.0547 14.6406 25.5859C14.7578 25.2422 14.9765 24.7344 15.1406 24.4531C15.3047 24.1797 15.7031 23.6797 16.0234 23.3516C16.4062 22.9687 16.8125 22.6406 17.1953 22.4297C17.5156 22.25 18.0312 22.0312 18.3281 21.9375C18.625 21.8437 19.0703 21.7422 19.3047 21.7109C19.539 21.6797 20.0156 21.6719 20.3594 21.6953ZM20.0078 13.3594C20.3359 13.3594 20.625 13.4141 20.8281 13.5078C21 13.5859 21.2578 13.7656 21.4062 13.9141C21.5469 14.0625 21.7344 14.3203 21.8125 14.4922C21.9062 14.6953 21.9609 14.9844 21.9609 15.3125C21.9609 15.6328 21.9062 15.9375 21.8125 16.1328C21.7344 16.3047 21.5547 16.5625 21.4062 16.7109C21.2578 16.8594 20.9844 17.0469 20.789 17.1328C20.5781 17.2266 20.2656 17.2891 20.0078 17.2891C19.75 17.2891 19.4375 17.2266 19.2265 17.1328C19.0312 17.0469 18.7578 16.8594 18.6094 16.7109C18.4609 16.5625 18.2812 16.3047 18.2031 16.1328C18.1094 15.9375 18.0547 15.6328 18.0547 15.3125C18.0547 14.9844 18.1094 14.6953 18.2031 14.4922C18.2812 14.3203 18.4609 14.0625 18.6094 13.9141C18.7578 13.7734 19.0156 13.5859 19.1875 13.5078C19.3906 13.4141 19.6797 13.3594 20.0078 13.3594Z" fill="#007BFF"/>
</svg>
