<svg width="30" height="30" viewBox="0 0 30 30" fill="none" xmlns="http://www.w3.org/2000/svg">
<g clip-path="url(#clip0_1338_15641)">
<path d="M15 30C23.2843 30 30 23.2843 30 15C30 6.71573 23.2843 0 15 0C6.71573 0 0 6.71573 0 15C0 23.2843 6.71573 30 15 30Z" fill="#5C5560"/>
<path d="M15 30C23.2843 30 30 23.2843 30 15C30 6.71573 23.2843 0 15 0C6.71573 0 0 6.71573 0 15C0 23.2843 6.71573 30 15 30Z" fill="white"/>
<path d="M27.9491 12.5379H22.4402H15.2904V17.7514H22.3373C21.7031 19.4443 20.4988 20.8585 18.958 21.7621C17.7973 22.4435 16.4447 22.8338 15.0008 22.8338C11.6418 22.8338 8.77646 20.7194 7.66353 17.7492C7.34203 16.894 7.16684 15.9672 7.16684 14.9998C7.16684 14.1084 7.31596 13.2518 7.58971 12.4539C8.64686 9.37719 11.5658 7.1658 15.0008 7.1658C16.5221 7.1658 17.9421 7.59951 19.1434 8.35045L23.4127 4.85521C21.1303 2.96029 18.1985 1.82129 15.0008 1.82129C9.90756 1.82129 5.48912 4.71043 3.29578 8.9392C2.35371 10.7537 1.82227 12.8145 1.82227 14.9998C1.82227 17.2597 2.39068 19.3864 3.39287 21.2452C5.61873 25.3732 9.98215 28.1784 15.0008 28.1784C18.1238 28.1784 20.9927 27.0923 23.2512 25.277C25.5734 23.4102 27.2496 20.7724 27.8912 17.7514C28.0802 16.8637 28.1794 15.9433 28.1794 14.9998C28.1794 14.1584 28.1005 13.3351 27.9491 12.5379Z" fill="#FBBB00"/>
<path d="M23.2502 25.2765L23.2509 25.2773C20.9924 27.0926 18.1236 28.1787 15.0005 28.1787C9.98186 28.1787 5.61844 25.3736 3.39258 21.2454L7.6633 17.7495C8.77623 20.7197 11.6415 22.8342 15.0006 22.8342C16.4445 22.8342 17.7971 22.4439 18.9578 21.7625L23.2502 25.2765Z" fill="#28B446"/>
<path d="M27.9478 12.5381C28.0991 13.3353 28.178 14.1586 28.178 15C28.178 15.9435 28.0788 16.8638 27.8899 17.7516C27.2483 20.7725 25.572 23.4104 23.2498 25.2771L23.2491 25.2764L18.9566 21.7623C20.4975 20.8586 21.7017 19.4445 22.336 17.7516H15.2891V12.5381H22.4388H27.9478Z" fill="#518EF8"/>
<path d="M23.4118 4.85527L19.1425 8.35051C17.9412 7.59957 16.5213 7.16586 15 7.16586C11.5648 7.16586 8.646 9.37725 7.58885 12.4539L3.29568 8.9392H3.29492C5.48826 4.71043 9.90664 1.82129 15 1.82129C18.1976 1.82129 21.1295 2.96029 23.4118 4.85527Z" fill="#FC3F1D"/>
</g>
<defs>
<clipPath id="clip0_1338_15641">
<rect width="30" height="30" fill="white"/>
</clipPath>
</defs>
</svg>
