<svg width="611" height="611" viewBox="0 0 611 611" fill="none" xmlns="http://www.w3.org/2000/svg">
<path d="M611 467.291H0V467.596H611V467.291Z" fill="#EBEBEB"/>
<path d="M392.905 484.33H352.43V484.636H392.905V484.33Z" fill="#EBEBEB"/>
<path d="M508.08 481.015H497.457V481.32H508.08V481.015Z" fill="#EBEBEB"/>
<path d="M484.627 475.612H400.408V475.918H484.627V475.612Z" fill="#EBEBEB"/>
<path d="M275.129 482.826H238.098V483.131H275.129V482.826Z" fill="#EBEBEB"/>
<path d="M227.218 482.826H203.729V483.131H227.218V482.826Z" fill="#EBEBEB"/>
<path d="M121.342 477.665H64.1055V477.971H121.342V477.665Z" fill="#EBEBEB"/>
<path d="M289.632 412.792H53.6646C49.819 412.792 46.6895 409.662 46.6895 405.816V74.1265C46.6895 70.2809 49.819 67.1514 53.6646 67.1514H289.632C293.476 67.1514 296.606 70.2809 296.606 74.1265V405.816C296.606 409.662 293.476 412.792 289.632 412.792ZM53.6646 67.4581C49.9864 67.4581 46.995 70.4495 46.995 74.1278V405.818C46.995 409.496 49.9864 412.487 53.6646 412.487H289.632C293.309 412.487 296.3 409.496 296.3 405.818V74.1265C296.3 70.4495 293.309 67.4569 289.632 67.4569L53.6646 67.4581Z" fill="#EBEBEB"/>
<path d="M553.946 412.792H317.98C314.134 412.792 311.006 409.662 311.006 405.816V74.1265C311.006 70.2809 314.135 67.1514 317.98 67.1514H553.946C557.792 67.1514 560.921 70.2809 560.921 74.1265V405.816C560.922 409.662 557.792 412.792 553.946 412.792ZM317.98 67.4581C314.303 67.4581 311.311 70.4495 311.311 74.1278V405.818C311.311 409.496 314.303 412.487 317.98 412.487H553.946C557.624 412.487 560.615 409.496 560.615 405.818V74.1265C560.615 70.4495 557.624 67.4569 553.946 67.4569L317.98 67.4581Z" fill="#EBEBEB"/>
<path d="M70.0668 286.858H278.166V95.2715L70.0668 95.2715L70.0668 286.858Z" fill="#E6E6E6"/>
<path d="M65.1268 286.858H276.02V95.2715L65.1268 95.2715L65.1268 286.858Z" fill="#F5F5F5"/>
<path d="M267.152 277.274L267.152 104.854L73.9957 104.854L73.9957 277.274H267.152Z" fill="#FAFAFA"/>
<path d="M243.286 277.274L178.329 104.855H150.979L215.936 277.274H243.286Z" fill="white"/>
<path d="M208.185 277.274L143.227 104.855H124.395L189.352 277.274H208.185Z" fill="white"/>
<path d="M149.961 277.275L149.961 104.856H139.381L139.381 277.275H149.961Z" fill="#E6E6E6"/>
<path d="M208.854 277.274L208.854 104.855H198.273L198.273 277.274H208.854Z" fill="#E6E6E6"/>
<path d="M148.053 283.355L148.053 97.73H134.679L134.679 283.355H148.053Z" fill="#F5F5F5"/>
<path d="M206.945 283.355L206.945 97.7295H193.572L193.572 283.355H206.945Z" fill="#F5F5F5"/>
<path d="M74.9375 277.275L74.9375 104.855H73.9966L73.9966 277.275H74.9375Z" fill="#E6E6E6"/>
<path d="M544.861 97.022H330.783V246.77H544.861V97.022Z" fill="#EBEBEB"/>
<path d="M544.859 246.771H546.664V97.023H544.859V246.771Z" fill="#E0E0E0"/>
<path d="M537.361 239.271V104.522L338.284 104.522V239.271L537.361 239.271Z" fill="white"/>
<path d="M339.771 239.271V104.522H338.283V239.271H339.771Z" fill="#E0E0E0"/>
<path d="M513.666 119.053H465.031V187.385H513.666V119.053Z" fill="#F5F5F5"/>
<path d="M402.511 131.719H353.877V200.051H402.511V131.719Z" fill="#F5F5F5"/>
<path d="M480.015 148.72H431.381V217.052H480.015V148.72Z" fill="#EBEBEB"/>
<path d="M413.325 151.72H394.33V170.715H413.325V151.72Z" fill="#F5F5F5"/>
<path d="M407.809 190.554H388.814V209.548H407.809V190.554Z" fill="#F0F0F0"/>
<path d="M499.92 458.511C499.92 453.662 503.851 449.73 508.7 449.73C513.549 449.73 517.48 453.662 517.48 458.511C517.48 463.359 513.549 467.291 508.7 467.291C503.851 467.291 499.92 463.361 499.92 458.511Z" fill="#E0E0E0"/>
<path d="M514.736 458.511C514.736 453.662 518.667 449.73 523.516 449.73C528.365 449.73 532.296 453.662 532.296 458.511C532.296 463.359 528.365 467.291 523.516 467.291C518.667 467.291 514.736 463.361 514.736 458.511Z" fill="#E0E0E0"/>
<path d="M272.109 458.511C272.109 453.662 276.041 449.73 280.889 449.73C285.738 449.73 289.67 453.662 289.67 458.511C289.67 463.359 285.738 467.291 280.889 467.291C276.041 467.291 272.109 463.361 272.109 458.511Z" fill="#E0E0E0"/>
<path d="M286.926 458.511C286.926 453.662 290.857 449.73 295.706 449.73C300.555 449.73 304.486 453.662 304.486 458.511C304.486 463.359 300.555 467.291 295.706 467.291C290.857 467.291 286.926 463.361 286.926 458.511Z" fill="#E0E0E0"/>
<path d="M515.122 459.722H535.902V272.507H515.122V459.722Z" fill="#EBEBEB"/>
<path d="M515.12 272.506H270.309V459.722H515.12V272.506Z" fill="#F5F5F5"/>
<path d="M507.163 280.189H278.268V452.04H507.163V280.189Z" fill="#EBEBEB"/>
<path d="M503.908 352.465H281.523V448.87H503.908V352.465Z" fill="#F5F5F5"/>
<path d="M503.908 283.806H281.523V350.024H503.908V283.806Z" fill="#F5F5F5"/>
<path d="M321.985 354.093H463.444C464.34 354.093 465.072 353.361 465.072 352.466C465.072 351.57 464.34 350.838 463.444 350.838H321.985C321.089 350.838 320.357 351.57 320.357 352.466C320.356 353.361 321.089 354.093 321.985 354.093Z" fill="#EBEBEB"/>
<path d="M321.985 285.434H463.444C464.34 285.434 465.072 284.702 465.072 283.806C465.072 282.91 464.34 282.178 463.444 282.178H321.985C321.089 282.178 320.357 282.911 320.357 283.806C320.356 284.702 321.089 285.434 321.985 285.434Z" fill="#EBEBEB"/>
<path d="M185.896 371.702H78.0957V467.291H185.896V371.702Z" fill="#F5F5F5"/>
<path d="M185.894 467.291H227.803V371.701H185.894V467.291Z" fill="#EBEBEB"/>
<path d="M188.233 354.933H72.7812V371.702H188.233V354.933Z" fill="#EBEBEB"/>
<path d="M188.234 371.702H233.117V354.933H188.234V371.702Z" fill="#E0E0E0"/>
<path d="M305.501 522.48C436.355 522.48 542.433 516.285 542.433 508.643C542.433 501.001 436.355 494.806 305.501 494.806C174.647 494.806 68.5684 501.001 68.5684 508.643C68.5684 516.285 174.647 522.48 305.501 522.48Z" fill="#F5F5F5"/>
<path d="M499.425 228.381H498.203V242.943H499.425V228.381Z" fill="#62AEFF"/>
<path d="M499.425 186.658H498.203V218.187H499.425V186.658Z" fill="#62AEFF"/>
<path d="M481.677 336.289H188.675C183.869 336.289 179.938 332.356 179.938 327.551V169.937C179.938 165.13 183.87 161.199 188.675 161.199H481.679C486.485 161.199 490.416 165.132 490.416 169.937V327.551C490.416 332.357 486.484 336.289 481.677 336.289Z" fill="#E0E0E0"/>
<path d="M486.145 331.822H193.142C188.335 331.822 184.404 327.889 184.404 323.085V165.47C184.404 160.664 188.337 156.732 193.142 156.732H486.145C490.952 156.732 494.883 160.665 494.883 165.47V323.085C494.883 327.889 490.95 331.822 486.145 331.822Z" fill="white"/>
<path d="M486.144 332.433H193.141C187.987 332.433 183.793 328.239 183.793 323.085V165.47C183.793 160.315 187.987 156.122 193.141 156.122H486.144C491.298 156.122 495.492 160.315 495.492 165.47V323.085C495.493 328.239 491.298 332.433 486.144 332.433ZM193.141 157.342C188.66 157.342 185.015 160.988 185.015 165.469V323.085C185.015 327.566 188.66 331.211 193.141 331.211H486.144C490.625 331.211 494.27 327.566 494.27 323.085V165.47C494.27 160.989 490.625 157.344 486.144 157.344H193.141V157.342Z" fill="#62AEFF"/>
<path d="M321.138 232.778H208.222C205.712 232.778 203.67 230.736 203.67 228.226V212.662C203.67 210.152 205.712 208.11 208.222 208.11H321.138C323.648 208.11 325.69 210.152 325.69 212.662V228.226C325.692 230.736 323.65 232.778 321.138 232.778ZM208.223 209.332C206.388 209.332 204.893 210.827 204.893 212.662V228.226C204.893 230.061 206.388 231.556 208.223 231.556H321.14C322.975 231.556 324.47 230.061 324.47 228.226V212.662C324.47 210.827 322.975 209.332 321.14 209.332H208.223Z" fill="#E0E0E0"/>
<path d="M380.628 265.763H208.224C205.714 265.763 203.672 263.721 203.672 261.211V245.646C203.672 243.136 205.714 241.093 208.224 241.093H380.628C383.138 241.093 385.18 243.135 385.18 245.646V261.21C385.18 263.721 383.138 265.763 380.628 265.763ZM208.224 242.316C206.388 242.316 204.894 243.811 204.894 245.648V261.211C204.894 263.046 206.388 264.541 208.224 264.541H380.628C382.464 264.541 383.958 263.046 383.958 261.211V245.646C383.958 243.81 382.464 242.315 380.628 242.315L208.224 242.316Z" fill="#E0E0E0"/>
<path d="M209.525 258.336C209.188 258.336 208.914 258.062 208.914 257.725V249.133C208.914 248.796 209.188 248.522 209.525 248.522C209.862 248.522 210.136 248.796 210.136 249.133V257.725C210.136 258.062 209.862 258.336 209.525 258.336Z" fill="#E0E0E0"/>
<path d="M456.5 232.778H343.583C341.073 232.778 339.031 230.736 339.031 228.226V212.662C339.031 210.152 341.073 208.11 343.583 208.11H456.5C459.01 208.11 461.052 210.152 461.052 212.662V228.226C461.052 230.736 459.01 232.778 456.5 232.778ZM343.583 209.332C341.747 209.332 340.253 210.827 340.253 212.662V228.226C340.253 230.061 341.748 231.556 343.583 231.556H456.5C458.335 231.556 459.83 230.061 459.83 228.226V212.662C459.83 210.827 458.335 209.332 456.5 209.332H343.583Z" fill="#E0E0E0"/>
<path opacity="0.2" d="M281.682 186.658H209.305C206.542 186.658 204.281 184.397 204.281 181.634C204.281 178.872 206.542 176.611 209.305 176.611H281.682C284.444 176.611 286.706 178.872 286.706 181.634C286.706 184.397 284.446 186.658 281.682 186.658Z" fill="#62AEFF"/>
<path opacity="0.2" d="M301.597 283.537H223.177C222.076 283.537 221.174 282.636 221.174 281.534C221.174 280.433 222.074 279.531 223.177 279.531H301.597C302.698 279.531 303.6 280.432 303.6 281.534C303.6 282.636 302.698 283.537 301.597 283.537Z" fill="#62AEFF"/>
<path d="M208.322 285.576C210.554 285.576 212.364 283.767 212.364 281.535C212.364 279.303 210.554 277.494 208.322 277.494C206.091 277.494 204.281 279.303 204.281 281.535C204.281 283.767 206.091 285.576 208.322 285.576Z" fill="#62AEFF"/>
<path d="M344.886 225.351C344.549 225.351 344.275 225.078 344.275 224.74V216.149C344.275 215.811 344.549 215.538 344.886 215.538C345.224 215.538 345.497 215.811 345.497 216.149V224.74C345.497 225.078 345.224 225.351 344.886 225.351Z" fill="#E0E0E0"/>
<path d="M209.525 225.351C209.188 225.351 208.914 225.078 208.914 224.74V216.149C208.914 215.811 209.188 215.538 209.525 215.538C209.862 215.538 210.136 215.811 210.136 216.149V224.74C210.136 225.078 209.862 225.351 209.525 225.351Z" fill="#E0E0E0"/>
<g opacity="0.6">
<path d="M214.393 224.086V216.58H219.455V217.466H215.385V219.79H218.908V220.676H215.385V224.087L214.393 224.086Z" fill="#263238"/>
<path d="M220.633 217.641V216.582H221.555V217.641H220.633ZM220.633 224.086V218.649H221.555V224.086H220.633Z" fill="#263238"/>
<path d="M222.947 224.085V218.649H223.777V219.472C223.988 219.088 224.184 218.833 224.364 218.71C224.542 218.588 224.74 218.525 224.954 218.525C225.265 218.525 225.581 218.624 225.901 218.822L225.583 219.678C225.357 219.545 225.133 219.479 224.907 219.479C224.706 219.479 224.524 219.538 224.365 219.659C224.205 219.78 224.09 219.949 224.023 220.164C223.92 220.492 223.869 220.85 223.869 221.239V224.087L222.947 224.085Z" fill="#263238"/>
<path d="M226.08 222.463L226.992 222.32C227.043 222.685 227.185 222.965 227.419 223.159C227.653 223.354 227.98 223.451 228.401 223.451C228.823 223.451 229.139 223.366 229.343 223.193C229.548 223.021 229.651 222.818 229.651 222.586C229.651 222.378 229.56 222.215 229.378 222.095C229.251 222.013 228.938 221.909 228.436 221.783C227.759 221.612 227.291 221.466 227.031 221.341C226.769 221.216 226.571 221.044 226.437 220.824C226.302 220.604 226.235 220.361 226.235 220.094C226.235 219.852 226.29 219.628 226.401 219.421C226.513 219.215 226.664 219.044 226.855 218.907C226.998 218.8 227.193 218.711 227.441 218.638C227.689 218.564 227.955 218.528 228.237 218.528C228.665 218.528 229.039 218.589 229.361 218.712C229.684 218.836 229.922 219.001 230.076 219.211C230.229 219.421 230.335 219.702 230.394 220.053L229.493 220.176C229.452 219.896 229.333 219.678 229.136 219.52C228.941 219.362 228.663 219.285 228.304 219.285C227.881 219.285 227.578 219.355 227.399 219.494C227.217 219.635 227.126 219.799 227.126 219.986C227.126 220.105 227.164 220.213 227.24 220.308C227.316 220.407 227.432 220.489 227.593 220.554C227.685 220.588 227.956 220.666 228.407 220.789C229.058 220.963 229.513 221.105 229.771 221.216C230.028 221.327 230.231 221.489 230.378 221.7C230.524 221.912 230.598 222.174 230.598 222.488C230.598 222.795 230.509 223.085 230.329 223.356C230.151 223.627 229.891 223.837 229.553 223.987C229.216 224.136 228.833 224.209 228.407 224.209C227.7 224.209 227.162 224.062 226.791 223.769C226.419 223.474 226.183 223.039 226.08 222.463Z" fill="#263238"/>
<path d="M233.703 223.262L233.837 224.076C233.576 224.129 233.345 224.158 233.14 224.158C232.806 224.158 232.547 224.104 232.362 223.999C232.178 223.894 232.048 223.754 231.973 223.582C231.898 223.41 231.861 223.047 231.861 222.494V219.366H231.184V218.649H231.861V217.302L232.777 216.749V218.649H233.703V219.366H232.777V222.546C232.777 222.808 232.793 222.978 232.825 223.053C232.858 223.127 232.91 223.187 232.984 223.231C233.058 223.275 233.162 223.298 233.299 223.298C233.402 223.297 233.537 223.286 233.703 223.262Z" fill="#263238"/>
<path d="M237.516 224.085V218.649H238.345V219.421C238.745 218.824 239.322 218.525 240.076 218.525C240.404 218.525 240.705 218.584 240.979 218.703C241.255 218.82 241.46 218.975 241.596 219.166C241.733 219.358 241.828 219.584 241.883 219.846C241.916 220.017 241.934 220.316 241.934 220.742V224.085H241.012V220.778C241.012 220.402 240.976 220.121 240.904 219.936C240.833 219.75 240.706 219.601 240.524 219.49C240.342 219.378 240.127 219.323 239.881 219.323C239.489 219.323 239.149 219.448 238.866 219.697C238.581 219.947 238.437 220.418 238.437 221.115V224.084H237.516V224.085Z" fill="#263238"/>
<path d="M246.897 223.416C246.556 223.705 246.227 223.911 245.911 224.03C245.595 224.15 245.257 224.209 244.895 224.209C244.297 224.209 243.839 224.062 243.518 223.771C243.196 223.479 243.035 223.107 243.035 222.652C243.035 222.386 243.096 222.144 243.217 221.923C243.338 221.703 243.497 221.525 243.694 221.392C243.889 221.259 244.111 221.159 244.356 221.089C244.537 221.041 244.811 220.995 245.176 220.951C245.919 220.862 246.468 220.757 246.82 220.633C246.823 220.506 246.825 220.427 246.825 220.393C246.825 220.016 246.738 219.752 246.563 219.598C246.328 219.391 245.978 219.285 245.515 219.285C245.082 219.285 244.762 219.362 244.555 219.514C244.348 219.666 244.195 219.934 244.097 220.321L243.195 220.197C243.277 219.812 243.413 219.501 243.6 219.263C243.788 219.026 244.059 218.843 244.415 218.715C244.769 218.588 245.181 218.523 245.648 218.523C246.112 218.523 246.489 218.577 246.781 218.687C247.07 218.795 247.283 218.934 247.42 219.099C247.555 219.265 247.651 219.474 247.706 219.725C247.736 219.882 247.752 220.165 247.752 220.575V221.804C247.752 222.661 247.772 223.202 247.811 223.429C247.85 223.657 247.928 223.874 248.044 224.082H247.082C246.986 223.895 246.925 223.671 246.897 223.416ZM246.821 221.358C246.487 221.495 245.984 221.61 245.315 221.706C244.937 221.761 244.669 221.822 244.511 221.891C244.354 221.959 244.233 222.059 244.147 222.19C244.063 222.321 244.02 222.468 244.02 222.628C244.02 222.873 244.113 223.079 244.3 223.242C244.486 223.406 244.758 223.488 245.116 223.488C245.472 223.488 245.787 223.411 246.063 223.256C246.341 223.101 246.544 222.888 246.673 222.618C246.771 222.41 246.821 222.103 246.821 221.696V221.358Z" fill="#263238"/>
<path d="M249.18 224.085V218.649H250.005V219.411C250.176 219.145 250.402 218.931 250.685 218.769C250.969 218.607 251.291 218.525 251.653 218.525C252.056 218.525 252.387 218.608 252.644 218.776C252.902 218.943 253.084 219.177 253.189 219.477C253.62 218.842 254.18 218.525 254.869 218.525C255.407 218.525 255.822 218.674 256.113 218.974C256.403 219.272 256.55 219.733 256.55 220.354V224.085H255.633V220.66C255.633 220.291 255.603 220.026 255.544 219.863C255.484 219.702 255.375 219.571 255.218 219.472C255.061 219.373 254.877 219.323 254.665 219.323C254.283 219.323 253.966 219.45 253.713 219.705C253.46 219.959 253.334 220.366 253.334 220.925V224.084H252.412V220.551C252.412 220.142 252.336 219.834 252.187 219.63C252.037 219.426 251.791 219.323 251.449 219.323C251.189 219.323 250.949 219.392 250.729 219.529C250.508 219.666 250.349 219.865 250.25 220.127C250.151 220.39 250.101 220.769 250.101 221.264V224.085H249.18Z" fill="#263238"/>
<path d="M261.636 222.336L262.588 222.453C262.438 223.009 262.159 223.441 261.754 223.748C261.347 224.055 260.829 224.209 260.198 224.209C259.403 224.209 258.772 223.965 258.305 223.474C257.84 222.984 257.607 222.298 257.607 221.413C257.607 220.498 257.842 219.788 258.314 219.283C258.785 218.777 259.395 218.525 260.147 218.525C260.874 218.525 261.468 218.773 261.928 219.267C262.389 219.762 262.619 220.459 262.619 221.357C262.619 221.411 262.616 221.494 262.614 221.602H258.559C258.592 222.2 258.762 222.657 259.065 222.975C259.37 223.292 259.748 223.451 260.203 223.451C260.54 223.451 260.83 223.362 261.068 223.185C261.306 223.008 261.496 222.724 261.636 222.336ZM258.611 220.846H261.646C261.605 220.389 261.488 220.046 261.298 219.817C261.005 219.463 260.623 219.284 260.157 219.284C259.734 219.284 259.377 219.426 259.09 219.71C258.8 219.992 258.64 220.371 258.611 220.846Z" fill="#263238"/>
</g>
<g opacity="0.6">
<path d="M214.359 257.071V249.565H219.786V250.451H215.352V252.75H219.504V253.631H215.352V256.186H219.96V257.072L214.359 257.071Z" fill="#263238"/>
<path d="M221.215 257.071V251.634H222.04V252.397C222.211 252.13 222.437 251.916 222.72 251.754C223.004 251.593 223.326 251.511 223.688 251.511C224.091 251.511 224.423 251.594 224.679 251.761C224.937 251.929 225.119 252.162 225.224 252.463C225.656 251.827 226.215 251.511 226.904 251.511C227.442 251.511 227.858 251.66 228.148 251.959C228.438 252.257 228.585 252.718 228.585 253.339V257.071H227.668V253.646C227.668 253.277 227.639 253.011 227.579 252.849C227.519 252.688 227.41 252.557 227.253 252.458C227.096 252.359 226.912 252.309 226.7 252.309C226.318 252.309 226.001 252.436 225.748 252.69C225.496 252.945 225.37 253.352 225.37 253.912V257.071H224.447V253.538C224.447 253.129 224.373 252.821 224.222 252.617C224.072 252.413 223.826 252.31 223.484 252.31C223.224 252.31 222.984 252.378 222.764 252.514C222.543 252.651 222.384 252.85 222.285 253.113C222.186 253.376 222.136 253.754 222.136 254.249V257.071H221.215Z" fill="#263238"/>
<path d="M233.496 256.4C233.155 256.69 232.827 256.895 232.51 257.015C232.195 257.135 231.856 257.193 231.495 257.193C230.897 257.193 230.439 257.047 230.117 256.756C229.796 256.464 229.635 256.091 229.635 255.638C229.635 255.371 229.696 255.128 229.817 254.908C229.938 254.688 230.097 254.511 230.293 254.378C230.489 254.245 230.71 254.144 230.956 254.076C231.137 254.028 231.41 253.982 231.776 253.938C232.519 253.849 233.067 253.744 233.419 253.62C233.423 253.493 233.424 253.414 233.424 253.379C233.424 253.003 233.337 252.739 233.163 252.586C232.928 252.379 232.577 252.274 232.114 252.274C231.682 252.274 231.361 252.351 231.155 252.501C230.947 252.654 230.794 252.921 230.697 253.307L229.795 253.184C229.877 252.798 230.012 252.487 230.199 252.25C230.388 252.013 230.659 251.83 231.014 251.702C231.369 251.573 231.781 251.51 232.247 251.51C232.712 251.51 233.089 251.564 233.38 251.674C233.67 251.782 233.882 251.92 234.019 252.085C234.155 252.252 234.25 252.46 234.305 252.712C234.336 252.869 234.352 253.152 234.352 253.562V254.791C234.352 255.647 234.371 256.19 234.41 256.416C234.449 256.643 234.528 256.861 234.643 257.069H233.681C233.585 256.879 233.524 256.656 233.496 256.4ZM233.421 254.342C233.087 254.479 232.585 254.595 231.916 254.691C231.536 254.746 231.27 254.807 231.112 254.875C230.955 254.944 230.834 255.044 230.748 255.175C230.664 255.305 230.621 255.452 230.621 255.612C230.621 255.858 230.714 256.063 230.901 256.225C231.086 256.389 231.359 256.471 231.717 256.471C232.073 256.471 232.388 256.393 232.664 256.239C232.941 256.083 233.144 255.871 233.274 255.601C233.372 255.393 233.422 255.087 233.422 254.68V254.342H233.421Z" fill="#263238"/>
<path d="M235.785 250.625V249.565H236.708V250.625H235.785ZM235.785 257.071V251.634H236.708V257.071H235.785Z" fill="#263238"/>
<path d="M238.09 257.071V249.565H239.011V257.071H238.09Z" fill="#263238"/>
</g>
<g opacity="0.6">
<path d="M349.66 224.086V216.58H350.654V223.2H354.349V224.086H349.66Z" fill="#263238"/>
<path d="M358.961 223.416C358.62 223.705 358.291 223.911 357.975 224.03C357.66 224.15 357.321 224.209 356.959 224.209C356.362 224.209 355.904 224.062 355.582 223.771C355.261 223.479 355.1 223.107 355.1 222.652C355.1 222.386 355.161 222.144 355.283 221.923C355.404 221.703 355.562 221.525 355.759 221.392C355.955 221.259 356.176 221.159 356.422 221.089C356.603 221.041 356.876 220.995 357.242 220.951C357.985 220.862 358.533 220.757 358.885 220.633C358.889 220.506 358.89 220.427 358.89 220.393C358.89 220.016 358.803 219.752 358.629 219.598C358.394 219.391 358.043 219.285 357.58 219.285C357.148 219.285 356.828 219.362 356.621 219.514C356.413 219.666 356.261 219.934 356.163 220.321L355.261 220.197C355.343 219.812 355.478 219.501 355.665 219.263C355.854 219.026 356.125 218.843 356.48 218.715C356.835 218.588 357.247 218.523 357.713 218.523C358.178 218.523 358.554 218.577 358.846 218.687C359.136 218.795 359.349 218.934 359.485 219.099C359.621 219.265 359.716 219.474 359.771 219.725C359.802 219.882 359.818 220.165 359.818 220.575V221.804C359.818 222.661 359.837 223.202 359.876 223.429C359.916 223.657 359.994 223.874 360.109 224.082H359.147C359.05 223.895 358.989 223.671 358.961 223.416ZM358.885 221.358C358.552 221.495 358.048 221.61 357.381 221.706C357.001 221.761 356.735 221.822 356.577 221.891C356.419 221.959 356.298 222.059 356.213 222.19C356.129 222.321 356.085 222.468 356.085 222.628C356.085 222.873 356.177 223.079 356.364 223.242C356.55 223.406 356.823 223.488 357.181 223.488C357.536 223.488 357.852 223.411 358.128 223.256C358.405 223.101 358.608 222.888 358.738 222.618C358.835 222.41 358.885 222.103 358.885 221.696V221.358Z" fill="#263238"/>
<path d="M360.875 222.463L361.787 222.32C361.838 222.685 361.98 222.965 362.214 223.159C362.448 223.354 362.775 223.451 363.196 223.451C363.618 223.451 363.934 223.366 364.138 223.193C364.343 223.021 364.446 222.818 364.446 222.586C364.446 222.378 364.355 222.215 364.173 222.095C364.047 222.013 363.733 221.909 363.231 221.783C362.554 221.612 362.086 221.466 361.826 221.341C361.564 221.216 361.366 221.044 361.232 220.824C361.097 220.604 361.03 220.361 361.03 220.094C361.03 219.852 361.085 219.628 361.196 219.421C361.308 219.215 361.459 219.044 361.65 218.907C361.793 218.8 361.988 218.711 362.235 218.638C362.483 218.564 362.748 218.528 363.031 218.528C363.458 218.528 363.832 218.589 364.155 218.712C364.477 218.836 364.716 219.001 364.87 219.211C365.022 219.421 365.129 219.702 365.187 220.053L364.287 220.176C364.245 219.896 364.127 219.678 363.93 219.52C363.734 219.362 363.457 219.285 363.098 219.285C362.675 219.285 362.372 219.355 362.192 219.494C362.011 219.635 361.92 219.799 361.92 219.986C361.92 220.105 361.958 220.213 362.033 220.308C362.109 220.407 362.225 220.489 362.387 220.554C362.478 220.588 362.75 220.666 363.2 220.789C363.852 220.963 364.306 221.105 364.564 221.216C364.822 221.327 365.025 221.489 365.172 221.7C365.318 221.912 365.391 222.174 365.391 222.488C365.391 222.795 365.302 223.085 365.123 223.356C364.943 223.627 364.685 223.837 364.347 223.987C364.009 224.136 363.627 224.209 363.199 224.209C362.493 224.209 361.954 224.062 361.584 223.769C361.215 223.474 360.979 223.039 360.875 222.463Z" fill="#263238"/>
<path d="M368.5 223.262L368.633 224.076C368.373 224.129 368.142 224.158 367.937 224.158C367.603 224.158 367.344 224.104 367.158 223.999C366.975 223.894 366.844 223.754 366.77 223.582C366.695 223.41 366.657 223.047 366.657 222.494V219.366H365.98V218.649H366.657V217.302L367.574 216.749V218.649H368.5V219.366H367.574V222.546C367.574 222.808 367.59 222.978 367.622 223.053C367.655 223.127 367.707 223.187 367.78 223.231C367.855 223.275 367.959 223.298 368.096 223.298C368.198 223.297 368.333 223.286 368.5 223.262Z" fill="#263238"/>
<path d="M372.314 224.085V218.649H373.144V219.421C373.544 218.824 374.121 218.525 374.875 218.525C375.203 218.525 375.504 218.584 375.778 218.703C376.054 218.82 376.258 218.975 376.395 219.166C376.532 219.358 376.627 219.584 376.682 219.846C376.715 220.017 376.733 220.316 376.733 220.742V224.085H375.811V220.778C375.811 220.402 375.775 220.121 375.703 219.936C375.631 219.75 375.505 219.601 375.323 219.49C375.141 219.378 374.926 219.323 374.68 219.323C374.288 219.323 373.948 219.448 373.665 219.697C373.38 219.947 373.236 220.418 373.236 221.115V224.084H372.314V224.085Z" fill="#263238"/>
<path d="M381.694 223.416C381.353 223.705 381.024 223.911 380.707 224.03C380.392 224.15 380.054 224.209 379.692 224.209C379.094 224.209 378.636 224.062 378.315 223.771C377.993 223.479 377.832 223.107 377.832 222.652C377.832 222.386 377.893 222.144 378.014 221.923C378.135 221.703 378.293 221.525 378.491 221.392C378.686 221.259 378.907 221.159 379.153 221.089C379.334 221.041 379.608 220.995 379.973 220.951C380.716 220.862 381.265 220.757 381.617 220.633C381.62 220.506 381.621 220.427 381.621 220.393C381.621 220.016 381.535 219.752 381.36 219.598C381.125 219.391 380.776 219.285 380.311 219.285C379.879 219.285 379.559 219.362 379.352 219.514C379.144 219.666 378.992 219.934 378.894 220.321L377.992 220.197C378.074 219.812 378.21 219.501 378.397 219.263C378.585 219.026 378.856 218.843 379.212 218.715C379.566 218.588 379.978 218.523 380.445 218.523C380.909 218.523 381.287 218.577 381.577 218.687C381.867 218.795 382.08 218.934 382.217 219.099C382.352 219.265 382.448 219.474 382.503 219.725C382.533 219.882 382.549 220.165 382.549 220.575V221.804C382.549 222.661 382.568 223.202 382.608 223.429C382.647 223.657 382.725 223.874 382.841 224.082H381.879C381.783 223.895 381.72 223.671 381.694 223.416ZM381.617 221.358C381.283 221.495 380.779 221.61 380.111 221.706C379.731 221.761 379.465 221.822 379.307 221.891C379.149 221.959 379.028 222.059 378.943 222.19C378.859 222.321 378.815 222.468 378.815 222.628C378.815 222.873 378.907 223.079 379.094 223.242C379.28 223.406 379.553 223.488 379.911 223.488C380.266 223.488 380.582 223.411 380.858 223.256C381.135 223.101 381.338 222.888 381.467 222.618C381.565 222.41 381.615 222.103 381.615 221.696V221.358H381.617Z" fill="#263238"/>
<path d="M383.977 224.085V218.649H384.801V219.411C384.973 219.145 385.199 218.931 385.482 218.769C385.766 218.607 386.088 218.525 386.45 218.525C386.853 218.525 387.184 218.608 387.44 218.776C387.698 218.943 387.88 219.177 387.985 219.477C388.416 218.842 388.976 218.525 389.665 218.525C390.203 218.525 390.618 218.674 390.909 218.974C391.199 219.272 391.344 219.733 391.344 220.354V224.085H390.427V220.66C390.427 220.291 390.398 220.026 390.338 219.863C390.278 219.702 390.17 219.571 390.012 219.472C389.856 219.373 389.671 219.323 389.46 219.323C389.077 219.323 388.761 219.45 388.508 219.705C388.255 219.959 388.129 220.366 388.129 220.925V224.084H387.206V220.551C387.206 220.142 387.132 219.834 386.981 219.63C386.831 219.426 386.586 219.323 386.243 219.323C385.983 219.323 385.744 219.392 385.524 219.529C385.302 219.666 385.145 219.865 385.045 220.127C384.946 220.39 384.896 220.769 384.896 221.264V224.085H383.977Z" fill="#263238"/>
<path d="M396.431 222.336L397.383 222.453C397.233 223.009 396.954 223.441 396.549 223.748C396.142 224.055 395.624 224.209 394.993 224.209C394.197 224.209 393.567 223.965 393.1 223.474C392.635 222.984 392.402 222.298 392.402 221.413C392.402 220.498 392.637 219.788 393.109 219.283C393.58 218.777 394.19 218.525 394.942 218.525C395.669 218.525 396.263 218.773 396.723 219.267C397.184 219.762 397.414 220.459 397.414 221.357C397.414 221.411 397.411 221.494 397.409 221.602H393.354C393.387 222.2 393.557 222.657 393.86 222.975C394.164 223.292 394.543 223.451 394.998 223.451C395.335 223.451 395.625 223.362 395.863 223.185C396.103 223.008 396.292 222.724 396.431 222.336ZM393.407 220.846H396.442C396.401 220.389 396.285 220.046 396.094 219.817C395.801 219.463 395.419 219.284 394.951 219.284C394.529 219.284 394.172 219.426 393.885 219.71C393.596 219.992 393.436 220.371 393.407 220.846Z" fill="#263238"/>
</g>
<path d="M365.422 298.064H407.217C410.887 298.064 413.889 301.066 413.889 304.736V312.289C413.889 315.959 410.887 318.961 407.217 318.961H365.422C361.752 318.961 358.75 315.959 358.75 312.289V304.736C358.75 301.066 361.752 298.064 365.422 298.064Z" fill="#62AEFF"/>
<path opacity="0.2" d="M432.143 298.064H473.938C477.607 298.064 480.61 301.066 480.61 304.736V312.289C480.61 315.959 477.607 318.961 473.938 318.961H432.143C428.473 318.961 425.471 315.959 425.471 312.289V304.736C425.471 301.066 428.473 298.064 432.143 298.064Z" fill="#62AEFF"/>
<path d="M167.177 106.529C158.151 105.174 156.103 113.376 146.609 113.054C148.103 118.028 153.055 120.136 153.055 120.136C153.055 120.136 145.516 125.616 147.197 133.798C153.106 127.113 161.04 133.458 169.67 133.193C187.601 132.642 194.074 124.335 187.865 117.21C193.637 109.911 177.867 105.996 178.224 100.556C176.419 101.397 176.486 104.869 176.486 104.869C176.486 104.869 169.976 105.421 164.363 100.862C164.132 104.214 167.177 106.529 167.177 106.529Z" fill="#263238"/>
<path d="M184.473 116.875C188.498 117.64 191.104 114.623 191.129 112.127C193.992 118.162 189.577 121.446 184.473 116.875Z" fill="#263238"/>
<path d="M192.948 484.876L184.444 489.775L171.922 470.882L180.426 465.983L192.948 484.876Z" fill="#FF8B7B"/>
<path d="M183.427 489.056L192.98 483.552C193.329 483.351 193.731 483.441 193.948 483.764L198.794 490.994C199.296 491.744 198.99 492.904 198.181 493.351C194.822 495.211 193.12 495.932 188.919 498.351C186.334 499.84 176.999 504.834 170.105 504.309C166.088 504.002 165.998 500.335 167.733 499.933C175.516 498.131 180.957 493.67 182.265 490.417C182.502 489.832 182.919 489.349 183.427 489.056Z" fill="#263238"/>
<path opacity="0.2" d="M180.43 465.988L171.924 470.888L178.382 480.625L186.89 475.723L180.43 465.988Z" fill="black"/>
<path d="M133.19 246.767C133.19 246.767 112.608 327.708 110.461 355.673C108.11 386.298 173.194 479.559 173.194 479.559L189.118 471.231C189.118 471.231 158.984 418.035 138.876 357.885C148.64 326.413 168.079 249.43 168.079 249.43L133.19 246.767Z" fill="#62AEFF"/>
<g opacity="0.3">
<path d="M133.19 246.767C133.19 246.767 112.608 327.708 110.461 355.673C108.11 386.298 173.194 479.559 173.194 479.559L189.118 471.231C189.118 471.231 158.984 418.035 138.876 357.885C148.64 326.413 168.079 249.43 168.079 249.43L133.19 246.767Z" fill="white"/>
</g>
<path opacity="0.4" d="M151.425 278.586C143.352 292.725 140.626 326.532 142.7 344.995C148.347 325.332 155.466 298.351 160.735 278.077C157.183 275.342 153.705 274.587 151.425 278.586Z" fill="#62AEFF"/>
<path d="M189.674 471.181L172.628 480.112L167.701 474.394L187.901 465.404L189.674 471.181Z" fill="#62AEFF"/>
<path d="M181.273 492.261C182.059 491.809 182.834 491.147 183.363 490.654C183.429 490.593 183.452 490.499 183.423 490.414C183.392 490.329 183.315 490.27 183.226 490.263C182.845 490.232 179.483 489.987 178.682 490.99C178.495 491.222 178.448 491.505 178.546 491.812C178.706 492.317 178.999 492.627 179.417 492.736C179.949 492.873 180.615 492.641 181.273 492.261ZM182.652 490.683C181.306 491.86 180.159 492.459 179.533 492.296C179.274 492.229 179.093 492.026 178.982 491.675C178.931 491.513 178.949 491.386 179.04 491.273C179.471 490.733 181.3 490.628 182.652 490.683Z" fill="#62AEFF"/>
<path d="M183.319 490.686C183.35 490.668 183.377 490.643 183.397 490.611C183.44 490.545 183.445 490.462 183.411 490.391C183.359 490.284 182.133 487.748 180.794 487.422C180.434 487.334 180.098 487.406 179.794 487.632C179.43 487.904 179.298 488.262 179.423 488.641C179.766 489.674 182.063 490.704 183.202 490.716C183.245 490.716 183.285 490.705 183.319 490.686ZM180.159 487.936C180.324 487.841 180.496 487.818 180.686 487.864C181.484 488.057 182.366 489.407 182.811 490.221C181.71 490.028 180.083 489.176 179.86 488.499C179.817 488.371 179.802 488.196 180.071 487.996C180.099 487.973 180.13 487.953 180.159 487.936Z" fill="#62AEFF"/>
<path d="M147.745 177.32L138.9 192.53C137.455 195.06 136.026 197.582 134.689 200.064C134.027 201.3 133.416 202.543 132.839 203.712C132.277 204.854 131.77 206.075 131.552 206.681L131.078 202.159C131.198 202.717 131.269 203.29 131.376 203.822C131.499 204.327 131.557 204.897 131.682 205.365C131.775 205.868 131.885 206.358 131.994 206.837L132.152 207.547C132.178 207.675 132.194 207.783 132.205 207.898C132.198 207.947 132.22 208.024 132.19 208.068C132.139 208.118 132.244 208.187 131.937 208.191C134.084 208.522 135.558 210.531 135.227 212.68C134.896 214.827 132.887 216.3 130.739 215.969C130.227 215.935 130.129 215.951 129.878 215.94L129.269 215.912C128.891 215.875 128.518 215.829 128.171 215.766C127.465 215.629 126.81 215.445 126.172 215.207C124.906 214.731 123.79 214.07 122.769 213.332C121.757 212.572 120.872 211.753 120.084 210.859C119.7 210.415 119.346 209.964 118.977 209.505C118.637 209.054 118.34 208.575 118.024 208.102C117.31 207.039 117.099 205.785 117.334 204.622L117.548 203.581C118.025 201.264 118.597 199.674 119.176 198.044C119.752 196.444 120.396 194.959 121.029 193.49C122.302 190.569 123.657 187.773 125.07 185.027C126.464 182.274 127.944 179.589 129.446 176.926C130.967 174.26 132.497 171.667 134.188 169.038L134.193 169.031C136.566 165.34 141.482 164.272 145.173 166.646C148.759 168.949 149.86 173.67 147.745 177.32Z" fill="#FF8B7B"/>
<path d="M142.789 162.576C152.739 161.827 157.624 168.862 152.886 180.442C150.282 186.832 146.188 194.414 143.189 199.703C142.401 201.106 141.675 202.354 141.085 203.359L121.145 187.825C125.018 178.649 136.132 163.079 142.789 162.576Z" fill="#263238"/>
<path opacity="0.3" d="M140.617 173.906C147.217 169.632 138.043 189.701 134.259 198.043L128.4 193.476C129.979 187.532 135.549 177.188 140.617 173.906Z" fill="black"/>
<path d="M168.503 498.744L158.74 497.998L159.019 475.279L168.781 476.024L168.503 498.744Z" fill="#FF8B7B"/>
<path d="M158.305 496.829L169.274 497.666C169.674 497.696 169.955 497.997 169.952 498.388L169.89 507.112C169.884 508.017 168.981 508.804 168.062 508.719C164.248 508.362 162.439 507.998 157.616 507.63C154.649 507.404 142.011 506.749 137.914 506.436C133.906 506.13 134.21 502.078 135.972 501.844C143.872 500.792 153.679 499.258 156.583 497.302C157.106 496.948 157.721 496.783 158.305 496.829Z" fill="#263238"/>
<path opacity="0.2" d="M168.784 476.032L159.018 475.285L158.879 486.997L168.645 487.742L168.784 476.032Z" fill="black"/>
<path d="M152.253 248.223C152.253 248.223 146.256 322.308 145.926 350.396C145.565 381.157 154.882 483.862 154.882 483.862L172.764 485.227C172.764 485.227 171.427 385.617 174.579 355.375C177.999 322.552 185.405 250.753 185.405 250.753L152.253 248.223Z" fill="#62AEFF"/>
<path opacity="0.3" d="M152.253 248.223C152.253 248.223 146.256 322.308 145.926 350.396C145.565 381.157 154.882 483.862 154.882 483.862L172.764 485.227C172.764 485.227 171.427 385.617 174.579 355.375C177.999 322.552 185.405 250.753 185.405 250.753L152.253 248.223Z" fill="white"/>
<path d="M173.484 485.282L154.162 483.807L153.555 476.936L174.808 479.624L173.484 485.282Z" fill="#62AEFF"/>
<path d="M154.728 498.266C155.63 498.334 156.641 498.224 157.353 498.115C157.442 498.102 157.514 498.037 157.536 497.95C157.559 497.862 157.529 497.771 157.459 497.713C157.162 497.473 154.528 495.371 153.303 495.748C153.02 495.835 152.821 496.044 152.729 496.352C152.577 496.86 152.646 497.283 152.929 497.61C153.292 498.024 153.972 498.208 154.728 498.266ZM156.75 497.738C154.98 497.953 153.698 497.8 153.273 497.311C153.097 497.11 153.062 496.84 153.166 496.485C153.215 496.323 153.302 496.226 153.44 496.185C154.1 495.983 155.668 496.93 156.75 497.738Z" fill="#62AEFF"/>
<path d="M157.302 498.117C157.337 498.119 157.374 498.114 157.408 498.1C157.48 498.069 157.531 498.003 157.542 497.926C157.559 497.807 157.971 495.015 157.051 493.99C156.803 493.714 156.485 493.583 156.109 493.599C155.656 493.618 155.345 493.841 155.236 494.225C154.938 495.273 156.254 497.423 157.188 498.076C157.222 498.101 157.261 498.114 157.302 498.117ZM156.238 494.056C156.428 494.071 156.584 494.149 156.714 494.293C157.264 494.904 157.233 496.52 157.143 497.445C156.344 496.663 155.48 495.038 155.675 494.352C155.712 494.221 155.799 494.068 156.132 494.054C156.169 494.052 156.204 494.054 156.238 494.056Z" fill="#62AEFF"/>
<path d="M133.19 246.767L185.405 250.753C186.093 246.117 186.052 230.854 188.177 211.586C189.605 198.647 192.016 183.904 196.28 169.368C196.589 168.332 196.897 167.309 197.22 166.274C197.22 166.274 194.609 165.531 190.855 164.689C187.739 163.988 183.822 163.212 179.962 162.732C173.321 161.907 163.683 160.958 157.773 161.038C154.341 161.094 150.97 161.407 148.275 161.717C144.83 162.144 142.788 162.576 142.788 162.576C142.788 162.576 131.393 190.524 133.19 246.767Z" fill="#62AEFF"/>
<path d="M135.504 207.096C135.504 207.096 137.528 204.178 139.375 203.293C140.693 202.663 141.697 202.03 142.291 201.623C142.703 201.341 143.257 201.633 143.288 202.134C143.333 202.901 142.928 204.128 140.911 205.806C140.587 208.21 136.841 210.588 136.841 210.588L135.504 207.096Z" fill="#FF8B7B"/>
<path opacity="0.3" d="M143.031 213.534L153.88 214.362L148.002 192.39L137.152 191.561L143.031 213.534Z" fill="black"/>
<path d="M142.29 213.478L153.14 214.306L147.262 192.333L136.412 191.505L142.29 213.478Z" fill="white"/>
<path opacity="0.3" d="M188.176 211.591C189.605 198.652 192.016 183.909 196.28 169.373C192.811 168.803 186.822 168.69 185.449 174.255C183.968 180.234 184.335 194.594 188.176 211.591Z" fill="black"/>
<path d="M200.889 173.908C201.437 175.611 201.872 177.091 202.291 178.685C202.721 180.25 203.089 181.827 203.449 183.407C204.143 186.574 204.778 189.761 205.219 193.019C205.672 196.278 206.026 199.569 206.139 202.963C206.262 206.364 206.174 209.842 205.683 213.495L205.631 213.888C205.425 215.417 204.714 216.757 203.694 217.761C202.854 218.586 202.044 219.135 201.296 219.573C200.58 219.97 199.879 220.293 199.269 220.514C198.017 220.984 196.929 221.236 195.902 221.418C193.861 221.773 192.057 221.873 190.294 221.918C186.795 221.992 183.526 221.696 180.298 221.341C177.078 220.948 173.924 220.434 170.804 219.804C167.673 219.161 164.621 218.461 161.504 217.542C159.4 216.921 158.196 214.712 158.818 212.608C159.324 210.894 160.882 209.779 162.579 209.758H162.655L171.766 209.656C174.797 209.61 177.808 209.549 180.763 209.397C183.709 209.275 186.63 209.028 189.295 208.652C190.612 208.458 191.885 208.203 192.862 207.887C193.341 207.729 193.745 207.559 193.924 207.446C194.035 207.388 194.02 207.353 193.975 207.37C193.882 207.401 193.699 207.49 193.406 207.768L191.415 212.034C191.494 209.527 191.299 206.808 191.018 204.043C190.701 201.269 190.215 198.43 189.694 195.585C189.14 192.74 188.52 189.871 187.836 187.014C187.509 185.582 187.137 184.156 186.784 182.732L185.702 178.576L185.64 178.338C184.535 174.093 187.082 169.757 191.326 168.652C195.421 167.588 199.604 169.936 200.889 173.908Z" fill="#FF8B7B"/>
<path d="M197.22 166.274C187.665 163.279 181.951 169.391 183.542 181.847C184.411 188.717 186.845 196.974 188.652 202.813L209.71 196.335C207.872 186.507 203.611 168.279 197.22 166.274Z" fill="#263238"/>
<path d="M158.833 161.039C165.39 160.004 166.796 156.097 166.661 151.676C166.642 150.602 166.533 149.48 166.372 148.368L174.917 142.265L181.193 137.791C179.057 144.821 176.309 157.71 180.817 162.849C180.817 162.849 172.07 169.301 161.426 173.457C159.745 174.113 157.798 173.24 157.266 171.514C155.229 164.897 158.833 161.039 158.833 161.039Z" fill="#FF8B7B"/>
<path opacity="0.2" d="M166.369 148.368C166.532 149.48 166.64 150.601 166.659 151.676C169.716 151.3 174.458 148.96 175.128 145.589C175.358 144.441 174.938 143.076 174.913 142.266L166.369 148.368Z" fill="black"/>
<path d="M181.697 123.323C182.157 133.065 182.917 138.732 178.609 144.352C172.13 152.805 159.807 149.995 156.47 140.664C153.468 132.264 153.22 117.744 162.194 112.617C171.035 107.567 181.237 113.582 181.697 123.323Z" fill="#FF8B7B"/>
<path d="M177.621 117.412C174.867 122.39 176.962 126.035 176.962 126.035L177.471 123.692C177.471 123.692 180.943 127.379 179.958 131.608C186.001 128.373 186.685 115.786 177.621 117.412Z" fill="#263238"/>
<path d="M182.695 118.903C171.693 121.319 165.504 120.215 163.55 119.789C168.154 119.479 169.364 117.389 169.364 117.389C169.364 117.389 158.388 120.084 156.131 119.222C158.346 112.518 163.493 109.435 173.894 109.842C184.293 110.25 182.695 118.903 182.695 118.903Z" fill="#263238"/>
<path d="M186.38 132.396C185.265 134.805 183.314 136.562 181.475 137.394C178.709 138.644 177.337 136.12 178.117 133.134C178.819 130.447 181.104 126.559 183.875 126.572C186.605 126.586 187.655 129.642 186.38 132.396Z" fill="#FF8B7B"/>
<path d="M167.436 128.008C167.522 128.795 167.177 129.489 166.666 129.559C166.155 129.629 165.673 129.047 165.587 128.26C165.502 127.473 165.846 126.779 166.357 126.709C166.868 126.64 167.351 127.221 167.436 128.008Z" fill="#263238"/>
<path d="M158.606 129.212C158.692 129.999 158.347 130.693 157.836 130.763C157.325 130.833 156.843 130.251 156.757 129.464C156.672 128.677 157.016 127.983 157.527 127.913C158.038 127.845 158.521 128.425 158.606 129.212Z" fill="#263238"/>
<path d="M161.456 129.221C161.456 129.221 160.172 134.001 158.455 136.457C159.978 137.568 162.264 136.654 162.264 136.654L161.456 129.221Z" fill="#FF5652"/>
<path d="M165.684 138.338C168.687 137.557 169.867 135.241 169.919 135.134C169.975 135.02 169.929 134.88 169.814 134.822C169.699 134.763 169.561 134.811 169.504 134.925C169.49 134.95 168.152 137.589 164.716 138.054C164.588 138.071 164.501 138.189 164.52 138.316C164.539 138.443 164.656 138.532 164.783 138.514C165.1 138.472 165.4 138.412 165.684 138.338Z" fill="#263238"/>
<path d="M169.857 124.765C169.93 124.746 170 124.709 170.058 124.653C170.242 124.475 170.248 124.182 170.069 123.996C168.308 122.159 166.202 122.573 166.114 122.592C165.873 122.618 165.704 122.889 165.758 123.141C165.812 123.392 166.059 123.553 166.308 123.502C166.396 123.484 168.019 123.192 169.402 124.637C169.524 124.763 169.699 124.805 169.857 124.765Z" fill="#263238"/>
<path d="M154.478 126.673C154.621 126.635 154.743 126.53 154.796 126.381C155.492 124.394 157.15 123.93 157.166 123.927C157.413 123.861 157.558 123.607 157.491 123.36C157.424 123.113 157.171 122.965 156.924 123.03L156.922 123.031C156.834 123.054 154.776 123.629 153.921 126.068C153.836 126.308 153.963 126.575 154.205 126.662C154.297 126.692 154.391 126.695 154.478 126.673Z" fill="#263238"/>
<path d="M164.723 210.638L154.699 204.446L155.621 216.768C155.621 216.768 164.015 219.777 165.171 215.326L164.723 210.638Z" fill="#FF8B7B"/>
<path d="M157.882 206.411C157.882 206.411 155.804 203.5 153.94 202.62C152.612 201.993 151.349 200.868 150.748 200.463C150.33 200.182 149.782 200.477 149.761 200.978C149.729 201.745 150.402 203.467 152.45 205.137C152.819 207.54 156.61 209.907 156.61 209.907L157.882 206.411Z" fill="#FF8B7B"/>
<path d="M146.031 205.484L146.916 213.196C146.993 213.861 147.463 214.416 148.105 214.602L155.62 216.768L154.691 204.553L147.859 203.678C146.805 203.541 145.91 204.427 146.031 205.484Z" fill="#FF8B7B"/>
<path d="M130.709 209.049L139.394 204.656L139.179 215.513C139.179 215.513 130.167 218.2 129.629 213.622L130.709 209.049Z" fill="#FF8B7B"/>
<path d="M143.199 205.065L143.2 213.639C143.2 214.123 142.876 214.543 142.411 214.665L139.18 215.513L139.395 204.656L141.857 204.022C142.535 203.847 143.199 204.363 143.199 205.065Z" fill="#FF8B7B"/>
<path d="M407.123 355.488C415.324 363.653 414.136 371.941 408.293 377.809C402.452 383.676 394.168 384.9 385.967 376.735C377.767 368.569 372.755 354.108 378.596 348.241C384.439 342.373 398.922 347.323 407.123 355.488Z" fill="#62AEFF"/>
<path d="M436.145 409.054C426.009 410.842 419.901 406.047 417.778 399.177C415.654 392.307 418.316 385.963 428.453 384.176C438.589 382.388 452.36 385.831 454.484 392.702C456.609 399.572 446.282 407.267 436.145 409.054Z" fill="#62AEFF"/>
<path d="M382.64 425.094C389.945 427.509 394.98 424.619 397.29 419.765C399.601 414.912 398.314 409.933 391.009 407.518C383.704 405.104 373.147 406.169 370.835 411.022C368.525 415.876 375.335 422.68 382.64 425.094Z" fill="#62AEFF"/>
<path d="M441.818 355.02C434.799 364.626 426.133 365.419 419.193 361.269C412.25 357.121 409.66 349.601 416.68 339.994C423.699 330.388 437.67 322.333 444.613 326.483C451.555 330.631 448.838 345.414 441.818 355.02Z" fill="#62AEFF"/>
<path d="M400.927 480.985C400.282 480.985 399.741 480.479 399.707 479.826C395.948 407.416 423.38 351.163 423.657 350.604C423.958 349.999 424.69 349.749 425.295 350.052C425.9 350.352 426.146 351.085 425.847 351.69C425.572 352.243 398.423 407.956 402.148 479.701C402.183 480.375 401.665 480.948 400.99 480.985C400.97 480.985 400.948 480.985 400.927 480.985Z" fill="#263238"/>
<path d="M411.07 390.606C411.031 390.606 410.993 390.604 410.953 390.6C410.282 390.536 409.788 389.94 409.852 389.269C409.867 389.11 411.214 373.336 400.4 368.16C399.791 367.87 399.533 367.139 399.825 366.53C400.116 365.92 400.848 365.666 401.454 365.955C413.816 371.872 412.352 388.783 412.285 389.5C412.225 390.132 411.692 390.606 411.07 390.606Z" fill="#263238"/>
<path d="M402.214 437.08C401.584 437.08 401.05 436.596 400.996 435.959C400.984 435.808 399.585 420.795 386.415 416.62C385.773 416.416 385.416 415.73 385.62 415.086C385.824 414.441 386.512 414.085 387.154 414.291C401.907 418.967 403.418 435.594 403.431 435.76C403.484 436.433 402.985 437.021 402.312 437.076C402.281 437.078 402.247 437.08 402.214 437.08Z" fill="#263238"/>
<path d="M404.854 418.392C404.757 418.392 404.659 418.381 404.561 418.356C403.906 418.195 403.505 417.533 403.667 416.878C409.387 393.671 427.428 394.224 427.614 394.227C428.289 394.257 428.81 394.828 428.78 395.502C428.749 396.178 428.176 396.707 427.504 396.668C426.849 396.646 411.265 396.264 406.04 417.463C405.902 418.019 405.403 418.392 404.854 418.392Z" fill="#263238"/>
<path d="M451.714 470.344C451.714 485.344 444.852 498.764 434.066 507.683C433.295 508.321 432.393 508.638 431.485 508.638H373.499C372.591 508.638 371.689 508.321 370.918 507.683C360.131 498.764 353.27 485.344 353.27 470.344C353.27 465.588 353.955 460.99 355.247 456.653C355.25 456.639 355.255 456.625 355.259 456.611C355.99 454.151 357.82 452.579 359.813 452.579H445.17C447.163 452.579 448.995 454.151 449.724 456.611C449.728 456.625 449.733 456.639 449.737 456.653C451.028 460.99 451.714 465.588 451.714 470.344Z" fill="#62AEFF"/>
<path d="M451.569 473.906C423.519 483.019 395.843 493.763 368.982 505.996C369.317 506.304 369.668 506.595 370.01 506.893C396.51 494.846 423.795 484.243 451.454 475.237C451.499 474.796 451.536 474.352 451.569 473.906Z" fill="white"/>
<path d="M433.992 452.579H431.873C409.289 468.55 387.326 485.783 365.924 502.905C366.199 503.206 366.471 503.508 366.754 503.802C388.565 486.353 410.964 468.792 433.992 452.579Z" fill="white"/>
<path d="M420.25 508.638C430.391 500.326 440.342 491.73 450.037 482.919C450.228 482.212 450.409 481.502 450.567 480.784C440.097 490.347 429.323 499.661 418.326 508.638H420.25Z" fill="white"/>
<path d="M420.31 452.579C397.253 460.139 375.626 472.089 355.461 484.7C355.587 485.101 355.711 485.503 355.847 485.9C377.089 472.602 399.949 460.028 424.361 452.579H420.31Z" fill="white"/>
<path d="M354.01 462.042C360.518 458.605 367.174 455.454 373.949 452.58H370.894C365.271 455.037 359.726 457.673 354.288 460.518C354.183 461.021 354.099 461.532 354.01 462.042Z" fill="white"/>
<path d="M384.369 452.579H382.568L354.045 478.949C354.13 479.42 354.229 479.885 354.328 480.352L384.369 452.579Z" fill="white"/>
</svg>
